<svg xmlns="http://www.w3.org/2000/svg" xmlns:xlink="http://www.w3.org/1999/xlink" width="100" zoomAndPan="magnify" viewBox="0 0 75 74.999997" height="100" preserveAspectRatio="xMidYMid meet" version="1.0"><path fill="#b4c6ff" d="M 0.0078125 0 L 36.25 0 L 36.25 48.738281 L 0.0078125 48.738281 Z M 0.0078125 0 " fill-opacity="1" fill-rule="nonzero"/><path fill="#b4c6ff" d="M 38.75 0 L 74.992188 0 L 74.992188 48.738281 L 38.75 48.738281 Z M 38.75 0 " fill-opacity="1" fill-rule="nonzero"/><path fill="#83a1ff" d="M 23.753906 4.375 L 12.503906 4.375 C 12.160156 4.375 11.878906 4.09375 11.878906 3.75 C 11.878906 3.40625 12.160156 3.125 12.503906 3.125 L 23.753906 3.125 C 24.097656 3.125 24.378906 3.40625 24.378906 3.75 C 24.378906 4.09375 24.097656 4.375 23.753906 4.375 Z M 23.753906 4.375 " fill-opacity="1" fill-rule="nonzero"/><path fill="#83a1ff" d="M 21.253906 6.875 L 2.507812 6.875 C 2.164062 6.875 1.882812 6.59375 1.882812 6.25 C 1.882812 5.90625 2.164062 5.625 2.507812 5.625 L 21.253906 5.625 C 21.597656 5.625 21.878906 5.90625 21.878906 6.25 C 21.878906 6.59375 21.597656 6.875 21.253906 6.875 Z M 21.253906 6.875 " fill-opacity="1" fill-rule="nonzero"/><path fill="#83a1ff" d="M 33.75 6.875 L 23.753906 6.875 C 23.410156 6.875 23.128906 6.59375 23.128906 6.25 C 23.128906 5.90625 23.410156 5.625 23.753906 5.625 L 33.75 5.625 C 34.09375 5.625 34.375 5.90625 34.375 6.25 C 34.375 6.59375 34.09375 6.875 33.75 6.875 Z M 33.75 6.875 " fill-opacity="1" fill-rule="nonzero"/><path fill="#83a1ff" d="M 28.75 9.371094 L 2.507812 9.371094 C 2.164062 9.371094 1.882812 9.09375 1.882812 8.75 C 1.882812 8.40625 2.164062 8.125 2.507812 8.125 L 28.75 8.125 C 29.09375 8.125 29.375 8.40625 29.375 8.75 C 29.375 9.09375 29.09375 9.371094 28.75 9.371094 Z M 28.75 9.371094 " fill-opacity="1" fill-rule="nonzero"/><path fill="#83a1ff" d="M 33.75 9.371094 L 31.25 9.371094 C 30.90625 9.371094 30.625 9.09375 30.625 8.75 C 30.625 8.40625 30.90625 8.125 31.25 8.125 L 33.75 8.125 C 34.09375 8.125 34.375 8.40625 34.375 8.75 C 34.375 9.09375 34.09375 9.371094 33.75 9.371094 Z M 33.75 9.371094 " fill-opacity="1" fill-rule="nonzero"/><path fill="#83a1ff" d="M 33.75 11.871094 L 26.253906 11.871094 C 25.910156 11.871094 25.628906 11.589844 25.628906 11.246094 C 25.628906 10.902344 25.910156 10.621094 26.253906 10.621094 L 33.75 10.621094 C 34.09375 10.621094 34.375 10.902344 34.375 11.246094 C 34.375 11.589844 34.09375 11.871094 33.75 11.871094 Z M 33.75 11.871094 " fill-opacity="1" fill-rule="nonzero"/><path fill="#83a1ff" d="M 23.753906 11.871094 L 2.507812 11.871094 C 2.164062 11.871094 1.882812 11.589844 1.882812 11.246094 C 1.882812 10.902344 2.164062 10.621094 2.507812 10.621094 L 23.753906 10.621094 C 24.097656 10.621094 24.378906 10.902344 24.378906 11.246094 C 24.378906 11.589844 24.097656 11.871094 23.753906 11.871094 Z M 23.753906 11.871094 " fill-opacity="1" fill-rule="nonzero"/><path fill="#83a1ff" d="M 11.253906 14.371094 L 2.507812 14.371094 C 2.164062 14.371094 1.882812 14.089844 1.882812 13.746094 C 1.882812 13.402344 2.164062 13.121094 2.507812 13.121094 L 11.253906 13.121094 C 11.597656 13.121094 11.878906 13.402344 11.878906 13.746094 C 11.878906 14.089844 11.597656 14.371094 11.253906 14.371094 Z M 11.253906 14.371094 " fill-opacity="1" fill-rule="nonzero"/><path fill="#83a1ff" d="M 26.253906 14.371094 L 13.753906 14.371094 C 13.410156 14.371094 13.128906 14.089844 13.128906 13.746094 C 13.128906 13.402344 13.410156 13.121094 13.753906 13.121094 L 26.253906 13.121094 C 26.597656 13.121094 26.878906 13.402344 26.878906 13.746094 C 26.878906 14.089844 26.597656 14.371094 26.253906 14.371094 Z M 26.253906 14.371094 " fill-opacity="1" fill-rule="nonzero"/><path fill="#83a1ff" d="M 15.003906 16.871094 L 2.507812 16.871094 C 2.164062 16.871094 1.882812 16.589844 1.882812 16.246094 C 1.882812 15.902344 2.164062 15.621094 2.507812 15.621094 L 15.003906 15.621094 C 15.347656 15.621094 15.628906 15.902344 15.628906 16.246094 C 15.628906 16.589844 15.347656 16.871094 15.003906 16.871094 Z M 15.003906 16.871094 " fill-opacity="1" fill-rule="nonzero"/><path fill="#83a1ff" d="M 26.253906 16.871094 L 17.503906 16.871094 C 17.160156 16.871094 16.878906 16.589844 16.878906 16.246094 C 16.878906 15.902344 17.160156 15.621094 17.503906 15.621094 L 26.253906 15.621094 C 26.597656 15.621094 26.878906 15.902344 26.878906 16.246094 C 26.878906 16.589844 26.597656 16.871094 26.253906 16.871094 Z M 26.253906 16.871094 " fill-opacity="1" fill-rule="nonzero"/><path fill="#83a1ff" d="M 10.003906 19.371094 L 2.507812 19.371094 C 2.164062 19.371094 1.882812 19.089844 1.882812 18.746094 C 1.882812 18.402344 2.164062 18.121094 2.507812 18.121094 L 10.003906 18.121094 C 10.347656 18.121094 10.628906 18.402344 10.628906 18.746094 C 10.628906 19.089844 10.347656 19.371094 10.003906 19.371094 Z M 10.003906 19.371094 " fill-opacity="1" fill-rule="nonzero"/><path fill="#83a1ff" d="M 25.003906 19.371094 L 12.503906 19.371094 C 12.160156 19.371094 11.878906 19.089844 11.878906 18.746094 C 11.878906 18.402344 12.160156 18.121094 12.503906 18.121094 L 25.003906 18.121094 C 25.347656 18.121094 25.628906 18.402344 25.628906 18.746094 C 25.628906 19.089844 25.347656 19.371094 25.003906 19.371094 Z M 25.003906 19.371094 " fill-opacity="1" fill-rule="nonzero"/><path fill="#83a1ff" d="M 26.253906 21.871094 L 2.507812 21.871094 C 2.164062 21.871094 1.882812 21.589844 1.882812 21.246094 C 1.882812 20.902344 2.164062 20.621094 2.507812 20.621094 L 26.253906 20.621094 C 26.597656 20.621094 26.878906 20.902344 26.878906 21.246094 C 26.878906 21.589844 26.597656 21.871094 26.253906 21.871094 Z M 26.253906 21.871094 " fill-opacity="1" fill-rule="nonzero"/><path fill="#83a1ff" d="M 5.007812 24.371094 L 2.507812 24.371094 C 2.164062 24.371094 1.882812 24.089844 1.882812 23.746094 C 1.882812 23.402344 2.164062 23.121094 2.507812 23.121094 L 5.007812 23.121094 C 5.351562 23.121094 5.632812 23.402344 5.632812 23.746094 C 5.632812 24.089844 5.351562 24.371094 5.007812 24.371094 Z M 5.007812 24.371094 " fill-opacity="1" fill-rule="nonzero"/><path fill="#83a1ff" d="M 10.003906 43.117188 L 2.507812 43.117188 C 2.164062 43.117188 1.882812 42.835938 1.882812 42.492188 C 1.882812 42.148438 2.164062 41.867188 2.507812 41.867188 L 10.003906 41.867188 C 10.347656 41.867188 10.628906 42.148438 10.628906 42.492188 C 10.628906 42.835938 10.347656 43.117188 10.003906 43.117188 Z M 10.003906 43.117188 " fill-opacity="1" fill-rule="nonzero"/><path fill="#83a1ff" d="M 20.003906 45.617188 L 2.507812 45.617188 C 2.164062 45.617188 1.882812 45.335938 1.882812 44.992188 C 1.882812 44.648438 2.164062 44.367188 2.507812 44.367188 L 20.003906 44.367188 C 20.347656 44.367188 20.628906 44.648438 20.628906 44.992188 C 20.628906 45.335938 20.347656 45.617188 20.003906 45.617188 Z M 20.003906 45.617188 " fill-opacity="1" fill-rule="nonzero"/><path fill="#83a1ff" d="M 27.503906 45.617188 L 22.503906 45.617188 C 22.160156 45.617188 21.878906 45.335938 21.878906 44.992188 C 21.878906 44.648438 22.160156 44.367188 22.503906 44.367188 L 27.503906 44.367188 C 27.847656 44.367188 28.125 44.648438 28.125 44.992188 C 28.125 45.335938 27.847656 45.617188 27.503906 45.617188 Z M 27.503906 45.617188 " fill-opacity="1" fill-rule="nonzero"/><path fill="#83a1ff" d="M 64.996094 45.617188 L 47.496094 45.617188 C 47.152344 45.617188 46.871094 45.335938 46.871094 44.992188 C 46.871094 44.648438 47.152344 44.367188 47.496094 44.367188 L 64.996094 44.367188 C 65.339844 44.367188 65.617188 44.648438 65.617188 44.992188 C 65.617188 45.335938 65.339844 45.617188 64.996094 45.617188 Z M 64.996094 45.617188 " fill-opacity="1" fill-rule="nonzero"/><path fill="#83a1ff" d="M 72.492188 45.617188 L 67.492188 45.617188 C 67.148438 45.617188 66.867188 45.335938 66.867188 44.992188 C 66.867188 44.648438 67.148438 44.367188 67.492188 44.367188 L 72.492188 44.367188 C 72.835938 44.367188 73.117188 44.648438 73.117188 44.992188 C 73.117188 45.335938 72.835938 45.617188 72.492188 45.617188 Z M 72.492188 45.617188 " fill-opacity="1" fill-rule="nonzero"/><path fill="#83a1ff" d="M 62.496094 3.125 L 51.246094 3.125 C 50.902344 3.125 50.621094 2.84375 50.621094 2.5 C 50.621094 2.15625 50.902344 1.875 51.246094 1.875 L 62.496094 1.875 C 62.839844 1.875 63.121094 2.15625 63.121094 2.5 C 63.121094 2.84375 62.839844 3.125 62.496094 3.125 Z M 62.496094 3.125 " fill-opacity="1" fill-rule="nonzero"/><path fill="#83a1ff" d="M 46.25 6.875 L 41.25 6.875 C 40.90625 6.875 40.625 6.59375 40.625 6.25 C 40.625 5.90625 40.90625 5.625 41.25 5.625 L 46.25 5.625 C 46.59375 5.625 46.871094 5.90625 46.871094 6.25 C 46.871094 6.59375 46.59375 6.875 46.25 6.875 Z M 46.25 6.875 " fill-opacity="1" fill-rule="nonzero"/><path fill="#83a1ff" d="M 69.992188 6.875 L 48.746094 6.875 C 48.402344 6.875 48.121094 6.59375 48.121094 6.25 C 48.121094 5.90625 48.402344 5.625 48.746094 5.625 L 69.992188 5.625 C 70.335938 5.625 70.617188 5.90625 70.617188 6.25 C 70.617188 6.59375 70.335938 6.875 69.992188 6.875 Z M 69.992188 6.875 " fill-opacity="1" fill-rule="nonzero"/><path fill="#83a1ff" d="M 52.496094 9.371094 L 41.25 9.371094 C 40.90625 9.371094 40.625 9.09375 40.625 8.75 C 40.625 8.40625 40.90625 8.125 41.25 8.125 L 52.496094 8.125 C 52.839844 8.125 53.121094 8.40625 53.121094 8.75 C 53.121094 9.09375 52.839844 9.371094 52.496094 9.371094 Z M 52.496094 9.371094 " fill-opacity="1" fill-rule="nonzero"/><path fill="#83a1ff" d="M 45 11.871094 L 41.25 11.871094 C 40.90625 11.871094 40.625 11.589844 40.625 11.246094 C 40.625 10.902344 40.90625 10.621094 41.25 10.621094 L 45 10.621094 C 45.34375 10.621094 45.625 10.902344 45.625 11.246094 C 45.625 11.589844 45.34375 11.871094 45 11.871094 Z M 45 11.871094 " fill-opacity="1" fill-rule="nonzero"/><path fill="#83a1ff" d="M 51.246094 11.871094 L 47.496094 11.871094 C 47.152344 11.871094 46.871094 11.589844 46.871094 11.246094 C 46.871094 10.902344 47.152344 10.621094 47.496094 10.621094 L 51.246094 10.621094 C 51.589844 10.621094 51.871094 10.902344 51.871094 11.246094 C 51.871094 11.589844 51.589844 11.871094 51.246094 11.871094 Z M 51.246094 11.871094 " fill-opacity="1" fill-rule="nonzero"/><path fill="#83a1ff" d="M 49.996094 14.371094 L 48.746094 14.371094 C 48.402344 14.371094 48.121094 14.089844 48.121094 13.746094 C 48.121094 13.402344 48.402344 13.121094 48.746094 13.121094 L 49.996094 13.121094 C 50.339844 13.121094 50.621094 13.402344 50.621094 13.746094 C 50.621094 14.089844 50.339844 14.371094 49.996094 14.371094 Z M 49.996094 14.371094 " fill-opacity="1" fill-rule="nonzero"/><path fill="#83a1ff" d="M 49.996094 16.871094 L 48.746094 16.871094 C 48.402344 16.871094 48.121094 16.589844 48.121094 16.246094 C 48.121094 15.902344 48.402344 15.621094 48.746094 15.621094 L 49.996094 15.621094 C 50.339844 15.621094 50.621094 15.902344 50.621094 16.246094 C 50.621094 16.589844 50.339844 16.871094 49.996094 16.871094 Z M 49.996094 16.871094 " fill-opacity="1" fill-rule="nonzero"/><path fill="#83a1ff" d="M 58.746094 19.371094 L 47.496094 19.371094 C 47.152344 19.371094 46.871094 19.089844 46.871094 18.746094 C 46.871094 18.402344 47.152344 18.121094 47.496094 18.121094 L 58.746094 18.121094 C 59.089844 18.121094 59.371094 18.402344 59.371094 18.746094 C 59.371094 19.089844 59.089844 19.371094 58.746094 19.371094 Z M 58.746094 19.371094 " fill-opacity="1" fill-rule="nonzero"/><path fill="#83a1ff" d="M 59.996094 21.871094 L 47.496094 21.871094 C 47.152344 21.871094 46.871094 21.589844 46.871094 21.246094 C 46.871094 20.902344 47.152344 20.621094 47.496094 20.621094 L 59.996094 20.621094 C 60.339844 20.621094 60.621094 20.902344 60.621094 21.246094 C 60.621094 21.589844 60.339844 21.871094 59.996094 21.871094 Z M 59.996094 21.871094 " fill-opacity="1" fill-rule="nonzero"/><path fill="#83a1ff" d="M 71.242188 24.371094 L 53.746094 24.371094 C 53.402344 24.371094 53.121094 24.089844 53.121094 23.746094 C 53.121094 23.402344 53.402344 23.121094 53.746094 23.121094 L 71.242188 23.121094 C 71.585938 23.121094 71.867188 23.402344 71.867188 23.746094 C 71.867188 24.089844 71.585938 24.371094 71.242188 24.371094 Z M 71.242188 24.371094 " fill-opacity="1" fill-rule="nonzero"/><path fill="#83a1ff" d="M 71.242188 26.871094 L 56.246094 26.871094 C 55.902344 26.871094 55.621094 26.589844 55.621094 26.246094 C 55.621094 25.902344 55.902344 25.621094 56.246094 25.621094 L 71.242188 25.621094 C 71.585938 25.621094 71.867188 25.902344 71.867188 26.246094 C 71.867188 26.589844 71.585938 26.871094 71.242188 26.871094 Z M 71.242188 26.871094 " fill-opacity="1" fill-rule="nonzero"/><path fill="#83a1ff" d="M 63.746094 29.367188 L 57.496094 29.367188 C 57.152344 29.367188 56.871094 29.085938 56.871094 28.742188 C 56.871094 28.398438 57.152344 28.117188 57.496094 28.117188 L 63.746094 28.117188 C 64.089844 28.117188 64.371094 28.398438 64.371094 28.742188 C 64.371094 29.085938 64.089844 29.367188 63.746094 29.367188 Z M 63.746094 29.367188 " fill-opacity="1" fill-rule="nonzero"/><path fill="#ff99c0" d="M 41.828125 20.933594 L 41.09375 25.808594 L 43.625 25.808594 L 44.078125 21.699219 Z M 41.828125 20.933594 " fill-opacity="1" fill-rule="nonzero"/><path fill="#ff99c0" d="M 33.171875 20.324219 L 33.171875 16.777344 L 29.421875 16.777344 L 29.421875 20.855469 C 29.421875 21.589844 30.015625 22.167969 30.734375 22.167969 L 31.328125 22.167969 C 32.34375 22.167969 33.171875 21.339844 33.171875 20.324219 Z M 33.171875 20.324219 " fill-opacity="1" fill-rule="nonzero"/><path fill="#ff99c0" d="M 33.171875 20.933594 L 33.953125 25.636719 L 31.4375 25.636719 L 30.890625 21.558594 Z M 33.171875 20.933594 " fill-opacity="1" fill-rule="nonzero"/><path fill="#1b53a6" d="M 40 74.984375 L 49.542969 74.984375 C 49.683594 74.984375 49.761719 74.796875 49.636719 74.703125 L 46.871094 72.484375 L 47.464844 57.488281 C 47.480469 57.082031 47.449219 56.660156 47.386719 56.253906 L 45 41.242188 L 30 41.242188 L 30 58.113281 L 27.675781 71.515625 C 27.566406 72.15625 27.503906 72.828125 27.503906 73.484375 L 27.503906 75 L 37.046875 75 C 37.1875 75 37.265625 74.8125 37.140625 74.71875 L 34.375 72.484375 L 37.375 58.113281 C 37.46875 57.691406 37.5 57.269531 37.5 56.832031 L 37.5 46.878906 L 38.125 46.878906 L 40.90625 58.097656 L 40 72.46875 Z M 40 74.984375 " fill-opacity="1" fill-rule="nonzero"/><path fill="#e67701" d="M 65.195312 27.320312 L 63.777344 23.699219 L 65.667969 22.957031 L 67.085938 26.582031 Z M 65.195312 27.320312 " fill-opacity="1" fill-rule="nonzero"/><path fill="#e67701" d="M 7.765625 26.929688 L 9.328125 22.945312 L 11.21875 23.6875 L 9.65625 27.671875 Z M 7.765625 26.929688 " fill-opacity="1" fill-rule="nonzero"/><path fill="#f5a000" d="M 69.339844 39.757812 L 64.382812 27.105469 L 67.539062 25.867188 L 72.496094 38.523438 Z M 69.339844 39.757812 " fill-opacity="1" fill-rule="nonzero"/><path fill="#f5a000" d="M 70.789062 15.417969 C 70.789062 16.019531 70.730469 16.617188 70.613281 17.207031 C 70.496094 17.796875 70.324219 18.371094 70.09375 18.929688 C 69.863281 19.484375 69.578125 20.011719 69.246094 20.511719 C 68.910156 21.015625 68.53125 21.476562 68.105469 21.902344 C 67.679688 22.328125 67.214844 22.707031 66.714844 23.042969 C 66.214844 23.378906 65.683594 23.660156 65.128906 23.890625 C 64.574219 24.121094 64 24.296875 63.410156 24.414062 C 62.820312 24.53125 62.222656 24.589844 61.621094 24.589844 C 61.019531 24.589844 60.421875 24.53125 59.832031 24.414062 C 59.242188 24.296875 58.667969 24.121094 58.109375 23.890625 C 57.554688 23.660156 57.027344 23.378906 56.527344 23.042969 C 56.023438 22.707031 55.5625 22.328125 55.136719 21.902344 C 54.710938 21.476562 54.328125 21.015625 53.996094 20.511719 C 53.660156 20.011719 53.378906 19.484375 53.148438 18.929688 C 52.917969 18.371094 52.742188 17.796875 52.625 17.207031 C 52.507812 16.617188 52.449219 16.019531 52.449219 15.417969 C 52.449219 14.816406 52.507812 14.21875 52.625 13.628906 C 52.742188 13.039062 52.917969 12.464844 53.148438 11.910156 C 53.378906 11.351562 53.660156 10.824219 53.996094 10.324219 C 54.328125 9.824219 54.710938 9.359375 55.136719 8.933594 C 55.5625 8.507812 56.023438 8.128906 56.527344 7.792969 C 57.027344 7.460938 57.554688 7.175781 58.109375 6.945312 C 58.667969 6.714844 59.242188 6.542969 59.832031 6.425781 C 60.421875 6.308594 61.019531 6.25 61.621094 6.25 C 62.222656 6.25 62.820312 6.308594 63.410156 6.425781 C 64 6.542969 64.574219 6.714844 65.128906 6.945312 C 65.683594 7.175781 66.214844 7.460938 66.714844 7.792969 C 67.214844 8.128906 67.679688 8.507812 68.105469 8.933594 C 68.53125 9.359375 68.910156 9.824219 69.246094 10.324219 C 69.578125 10.824219 69.863281 11.351562 70.09375 11.910156 C 70.324219 12.464844 70.496094 13.039062 70.613281 13.628906 C 70.730469 14.21875 70.789062 14.816406 70.789062 15.417969 Z M 70.789062 15.417969 " fill-opacity="1" fill-rule="nonzero"/><path fill="#fcc419" d="M 68.742188 15.417969 C 68.742188 15.886719 68.699219 16.351562 68.605469 16.808594 C 68.515625 17.265625 68.378906 17.710938 68.203125 18.144531 C 68.023438 18.578125 67.804688 18.988281 67.542969 19.375 C 67.28125 19.765625 66.988281 20.125 66.65625 20.457031 C 66.328125 20.785156 65.964844 21.082031 65.578125 21.339844 C 65.1875 21.601562 64.777344 21.820312 64.347656 22 C 63.914062 22.179688 63.46875 22.3125 63.007812 22.40625 C 62.550781 22.496094 62.085938 22.542969 61.621094 22.542969 C 61.152344 22.542969 60.6875 22.496094 60.230469 22.40625 C 59.769531 22.3125 59.324219 22.179688 58.894531 22 C 58.460938 21.820312 58.050781 21.601562 57.664062 21.339844 C 57.273438 21.082031 56.914062 20.785156 56.582031 20.457031 C 56.253906 20.125 55.957031 19.765625 55.695312 19.375 C 55.4375 18.988281 55.21875 18.578125 55.039062 18.144531 C 54.859375 17.710938 54.722656 17.265625 54.632812 16.808594 C 54.542969 16.351562 54.496094 15.886719 54.496094 15.417969 C 54.496094 14.949219 54.542969 14.488281 54.632812 14.027344 C 54.722656 13.570312 54.859375 13.125 55.039062 12.691406 C 55.21875 12.261719 55.4375 11.851562 55.695312 11.460938 C 55.957031 11.070312 56.253906 10.710938 56.582031 10.382812 C 56.914062 10.050781 57.273438 9.753906 57.664062 9.496094 C 58.050781 9.234375 58.460938 9.015625 58.894531 8.835938 C 59.324219 8.660156 59.769531 8.523438 60.230469 8.433594 C 60.6875 8.339844 61.152344 8.296875 61.621094 8.296875 C 62.085938 8.296875 62.550781 8.339844 63.007812 8.433594 C 63.46875 8.523438 63.914062 8.660156 64.347656 8.835938 C 64.777344 9.015625 65.1875 9.234375 65.578125 9.496094 C 65.964844 9.753906 66.328125 10.050781 66.65625 10.382812 C 66.988281 10.710938 67.28125 11.070312 67.542969 11.460938 C 67.804688 11.851562 68.023438 12.261719 68.203125 12.691406 C 68.378906 13.125 68.515625 13.570312 68.605469 14.027344 C 68.699219 14.488281 68.742188 14.949219 68.742188 15.417969 Z M 68.742188 15.417969 " fill-opacity="1" fill-rule="nonzero"/><path fill="#f5a000" d="M 2.511719 38.515625 L 7.46875 25.863281 L 10.625 27.097656 L 5.667969 39.753906 Z M 2.511719 38.515625 " fill-opacity="1" fill-rule="nonzero"/><path fill="#f5a000" d="M 22.550781 15.417969 C 22.550781 16.019531 22.492188 16.617188 22.375 17.207031 C 22.257812 17.796875 22.082031 18.371094 21.851562 18.929688 C 21.621094 19.484375 21.339844 20.011719 21.003906 20.511719 C 20.671875 21.015625 20.289062 21.476562 19.863281 21.902344 C 19.4375 22.328125 18.976562 22.707031 18.472656 23.042969 C 17.972656 23.378906 17.445312 23.660156 16.890625 23.890625 C 16.332031 24.121094 15.757812 24.296875 15.167969 24.414062 C 14.578125 24.53125 13.980469 24.589844 13.378906 24.589844 C 12.777344 24.589844 12.179688 24.53125 11.589844 24.414062 C 11 24.296875 10.425781 24.121094 9.871094 23.890625 C 9.316406 23.660156 8.785156 23.378906 8.285156 23.042969 C 7.785156 22.707031 7.320312 22.328125 6.894531 21.902344 C 6.46875 21.476562 6.089844 21.015625 5.753906 20.511719 C 5.421875 20.011719 5.136719 19.484375 4.90625 18.929688 C 4.675781 18.371094 4.503906 17.796875 4.386719 17.207031 C 4.269531 16.617188 4.210938 16.019531 4.210938 15.417969 C 4.210938 14.816406 4.269531 14.21875 4.386719 13.628906 C 4.503906 13.039062 4.675781 12.464844 4.90625 11.910156 C 5.136719 11.351562 5.421875 10.824219 5.753906 10.324219 C 6.089844 9.824219 6.46875 9.359375 6.894531 8.933594 C 7.320312 8.507812 7.785156 8.128906 8.285156 7.792969 C 8.785156 7.460938 9.316406 7.175781 9.871094 6.945312 C 10.425781 6.714844 11 6.542969 11.589844 6.425781 C 12.179688 6.308594 12.777344 6.25 13.378906 6.25 C 13.980469 6.25 14.578125 6.308594 15.167969 6.425781 C 15.757812 6.542969 16.332031 6.714844 16.890625 6.945312 C 17.445312 7.175781 17.972656 7.460938 18.472656 7.792969 C 18.976562 8.128906 19.4375 8.507812 19.863281 8.933594 C 20.289062 9.359375 20.671875 9.824219 21.003906 10.324219 C 21.339844 10.824219 21.621094 11.351562 21.851562 11.910156 C 22.082031 12.464844 22.257812 13.039062 22.375 13.628906 C 22.492188 14.21875 22.550781 14.816406 22.550781 15.417969 Z M 22.550781 15.417969 " fill-opacity="1" fill-rule="nonzero"/><path fill="#fcc419" d="M 20.503906 15.417969 C 20.503906 15.886719 20.457031 16.351562 20.367188 16.808594 C 20.277344 17.265625 20.140625 17.710938 19.960938 18.144531 C 19.78125 18.578125 19.5625 18.988281 19.304688 19.375 C 19.042969 19.765625 18.746094 20.125 18.417969 20.457031 C 18.085938 20.785156 17.726562 21.082031 17.335938 21.339844 C 16.949219 21.601562 16.539062 21.820312 16.105469 22 C 15.675781 22.179688 15.226562 22.3125 14.769531 22.40625 C 14.3125 22.496094 13.847656 22.542969 13.378906 22.542969 C 12.914062 22.542969 12.449219 22.496094 11.992188 22.40625 C 11.53125 22.3125 11.085938 22.179688 10.652344 22 C 10.222656 21.820312 9.8125 21.601562 9.421875 21.339844 C 9.035156 21.082031 8.671875 20.785156 8.34375 20.457031 C 8.011719 20.125 7.71875 19.765625 7.457031 19.375 C 7.195312 18.988281 6.976562 18.578125 6.796875 18.144531 C 6.621094 17.710938 6.484375 17.265625 6.394531 16.808594 C 6.300781 16.351562 6.257812 15.886719 6.257812 15.417969 C 6.257812 14.949219 6.300781 14.488281 6.394531 14.027344 C 6.484375 13.570312 6.621094 13.125 6.796875 12.691406 C 6.976562 12.261719 7.195312 11.851562 7.457031 11.460938 C 7.71875 11.070312 8.011719 10.710938 8.34375 10.382812 C 8.671875 10.050781 9.035156 9.753906 9.421875 9.496094 C 9.8125 9.234375 10.222656 9.015625 10.652344 8.835938 C 11.085938 8.660156 11.53125 8.523438 11.992188 8.433594 C 12.449219 8.339844 12.914062 8.296875 13.378906 8.296875 C 13.847656 8.296875 14.3125 8.339844 14.769531 8.433594 C 15.226562 8.523438 15.675781 8.660156 16.105469 8.835938 C 16.539062 9.015625 16.949219 9.234375 17.335938 9.496094 C 17.726562 9.753906 18.085938 10.050781 18.417969 10.382812 C 18.746094 10.710938 19.042969 11.070312 19.304688 11.460938 C 19.5625 11.851562 19.78125 12.261719 19.960938 12.691406 C 20.140625 13.125 20.277344 13.570312 20.367188 14.027344 C 20.457031 14.488281 20.503906 14.949219 20.503906 15.417969 Z M 20.503906 15.417969 " fill-opacity="1" fill-rule="nonzero"/><path fill="#ff99c0" d="M 71.164062 31.851562 C 71.398438 32.429688 71.164062 33.101562 70.632812 33.398438 L 65.105469 36.570312 L 62.746094 31.507812 L 64.121094 30.757812 L 64.167969 30.492188 C 64.246094 30.023438 64.652344 29.742188 65.058594 29.742188 C 65.261719 29.742188 65.449219 29.804688 65.617188 29.945312 L 68.304688 28.492188 C 68.960938 28.132812 69.773438 28.429688 70.054688 29.117188 Z M 71.164062 31.851562 " fill-opacity="1" fill-rule="nonzero"/><path fill="#ff99c0" d="M 41.828125 20.324219 L 41.828125 16.777344 L 45.578125 16.777344 L 45.578125 20.855469 C 45.578125 21.589844 44.984375 22.167969 44.265625 22.167969 L 43.671875 22.167969 C 42.65625 22.167969 41.828125 21.339844 41.828125 20.324219 Z M 41.828125 20.324219 " fill-opacity="1" fill-rule="nonzero"/><path fill="#1b53a6" d="M 43.125 15.292969 L 46.828125 15.292969 L 46.84375 16.886719 C 46.84375 17.417969 46.484375 17.871094 45.96875 17.964844 L 43.65625 18.433594 L 43.65625 20.027344 C 43.65625 21.199219 42.703125 22.152344 41.53125 22.152344 L 40.34375 19.824219 C 39.28125 17.746094 40.796875 15.292969 43.125 15.292969 Z M 43.125 15.292969 " fill-opacity="1" fill-rule="nonzero"/><path fill="#1b53a6" d="M 31.875 15.292969 L 28.171875 15.292969 L 28.15625 16.886719 C 28.15625 17.417969 28.515625 17.871094 29.03125 17.964844 L 31.34375 18.433594 L 31.34375 20.027344 C 31.34375 21.199219 32.296875 22.152344 33.46875 22.152344 L 34.65625 19.824219 C 35.71875 17.746094 34.203125 15.292969 31.875 15.292969 Z M 31.875 15.292969 " fill-opacity="1" fill-rule="nonzero"/><path fill="#ff99c0" d="M 32.734375 19.839844 C 32.734375 20.09375 32.644531 20.3125 32.464844 20.492188 C 32.285156 20.671875 32.066406 20.761719 31.8125 20.761719 C 31.558594 20.761719 31.34375 20.671875 31.160156 20.492188 C 30.980469 20.3125 30.890625 20.09375 30.890625 19.839844 C 30.890625 19.585938 30.980469 19.367188 31.160156 19.1875 C 31.34375 19.007812 31.558594 18.917969 31.8125 18.917969 C 32.066406 18.917969 32.285156 19.007812 32.464844 19.1875 C 32.644531 19.367188 32.734375 19.585938 32.734375 19.839844 Z M 32.734375 19.839844 " fill-opacity="1" fill-rule="nonzero"/><path fill="#ff99c0" d="M 44.140625 19.839844 C 44.140625 20.09375 44.050781 20.3125 43.871094 20.492188 C 43.6875 20.671875 43.472656 20.761719 43.21875 20.761719 C 42.964844 20.761719 42.746094 20.671875 42.566406 20.492188 C 42.386719 20.3125 42.296875 20.09375 42.296875 19.839844 C 42.296875 19.585938 42.386719 19.367188 42.566406 19.1875 C 42.746094 19.007812 42.964844 18.917969 43.21875 18.917969 C 43.472656 18.917969 43.6875 19.007812 43.871094 19.1875 C 44.050781 19.367188 44.140625 19.585938 44.140625 19.839844 Z M 44.140625 19.839844 " fill-opacity="1" fill-rule="nonzero"/><path fill="#ff99c0" d="M 12.332031 31.539062 L 10.003906 36.570312 L 9.972656 36.617188 L 4.367188 33.414062 C 3.820312 33.101562 3.601562 32.445312 3.835938 31.867188 L 4.945312 29.148438 C 5.226562 28.460938 6.039062 28.164062 6.695312 28.523438 L 8.742188 29.617188 L 9.351562 29.335938 C 9.878906 29.085938 10.472656 29.570312 10.347656 30.148438 L 10.285156 30.445312 Z M 12.332031 31.539062 " fill-opacity="1" fill-rule="nonzero"/><path fill="#06b790" d="M 39.859375 26.855469 L 45 41.242188 L 30 41.242188 L 26.363281 29.101562 L 22.613281 36.398438 C 21.753906 38.070312 20.175781 39.257812 18.332031 39.632812 C 17.925781 39.710938 17.519531 39.757812 17.128906 39.757812 C 16.066406 39.757812 15.003906 39.476562 14.066406 38.945312 L 9.988281 36.617188 L 10.019531 36.570312 L 12.347656 31.539062 L 17.519531 34.320312 L 21.957031 26.808594 C 23.082031 24.902344 25.128906 23.730469 27.332031 23.730469 L 35.453125 23.730469 C 37.421875 23.746094 39.1875 24.996094 39.859375 26.855469 Z M 39.859375 26.855469 " fill-opacity="1" fill-rule="nonzero"/><path fill="#06b790" d="M 62.746094 31.492188 L 65.105469 36.554688 L 60.933594 38.945312 C 59.996094 39.476562 58.933594 39.757812 57.871094 39.757812 C 57.464844 39.757812 57.058594 39.710938 56.667969 39.632812 C 54.824219 39.257812 53.246094 38.070312 52.386719 36.398438 L 48.636719 29.101562 L 45 41.242188 L 30 41.242188 L 35.140625 26.855469 C 35.8125 24.996094 37.578125 23.746094 39.5625 23.746094 L 47.683594 23.746094 C 49.902344 23.746094 51.949219 24.917969 53.058594 26.824219 L 57.496094 34.335938 Z M 62.746094 31.492188 " fill-opacity="1" fill-rule="nonzero"/><path fill="#009172" d="M 30.359375 40.867188 C 30.296875 40.867188 30.21875 40.851562 30.15625 40.835938 C 29.828125 40.726562 29.65625 40.367188 29.78125 40.039062 L 34.5625 26.652344 C 34.9375 25.621094 35.609375 24.730469 36.5 24.105469 C 36.78125 23.902344 37.171875 23.980469 37.375 24.261719 C 37.578125 24.542969 37.5 24.933594 37.21875 25.136719 C 36.53125 25.621094 36.015625 26.292969 35.734375 27.089844 L 30.953125 40.476562 C 30.859375 40.710938 30.609375 40.867188 30.359375 40.867188 Z M 30.359375 40.867188 " fill-opacity="1" fill-rule="nonzero"/></svg>