<svg xmlns="http://www.w3.org/2000/svg" xmlns:xlink="http://www.w3.org/1999/xlink" width="500" zoomAndPan="magnify" viewBox="0 0 375 374.999991" height="500" preserveAspectRatio="xMidYMid meet" version="1.0"><defs><g/><clipPath id="864c98f43f"><path d="M 0 163.75 L 51.75 163.75 L 51.75 208.75 L 0 208.75 Z M 0 163.75 " clip-rule="nonzero"/></clipPath><clipPath id="9f3e703522"><path d="M 51.660156 186.242188 L 38.761719 208.738281 L 12.96875 208.738281 L 0.0703125 186.242188 L 12.96875 163.75 L 38.765625 163.75 Z M 51.660156 186.242188 " clip-rule="nonzero"/></clipPath><linearGradient x1="8.011183" gradientTransform="matrix(0.335546, 0, 0, 0.337838, 0.0714916, 163.749986)" y1="-7.452327" x2="145.742977" gradientUnits="userSpaceOnUse" y2="140.608424" id="18285ecf2f"><stop stop-opacity="1" stop-color="rgb(100%, 56.898499%, 30.198669%)" offset="0"/><stop stop-opacity="1" stop-color="rgb(100%, 56.898499%, 30.198669%)" offset="0.125"/><stop stop-opacity="1" stop-color="rgb(100%, 56.898499%, 30.198669%)" offset="0.140625"/><stop stop-opacity="1" stop-color="rgb(100%, 57.051086%, 30.223083%)" offset="0.148438"/><stop stop-opacity="1" stop-color="rgb(100%, 57.402039%, 30.278015%)" offset="0.152344"/><stop stop-opacity="1" stop-color="rgb(100%, 57.598877%, 30.308533%)" offset="0.15625"/><stop stop-opacity="1" stop-color="rgb(100%, 57.795715%, 30.33905%)" offset="0.160156"/><stop stop-opacity="1" stop-color="rgb(100%, 57.99408%, 30.369568%)" offset="0.164062"/><stop stop-opacity="1" stop-color="rgb(100%, 58.190918%, 30.400085%)" offset="0.167969"/><stop stop-opacity="1" stop-color="rgb(100%, 58.387756%, 30.430603%)" offset="0.171875"/><stop stop-opacity="1" stop-color="rgb(100%, 58.584595%, 30.461121%)" offset="0.175781"/><stop stop-opacity="1" stop-color="rgb(100%, 58.781433%, 30.491638%)" offset="0.179688"/><stop stop-opacity="1" stop-color="rgb(100%, 58.978271%, 30.522156%)" offset="0.183594"/><stop stop-opacity="1" stop-color="rgb(100%, 59.17511%, 30.554199%)" offset="0.1875"/><stop stop-opacity="1" stop-color="rgb(100%, 59.371948%, 30.584717%)" offset="0.191406"/><stop stop-opacity="1" stop-color="rgb(100%, 59.570312%, 30.615234%)" offset="0.195312"/><stop stop-opacity="1" stop-color="rgb(100%, 59.767151%, 30.645752%)" offset="0.199219"/><stop stop-opacity="1" stop-color="rgb(100%, 59.963989%, 30.67627%)" offset="0.203125"/><stop stop-opacity="1" stop-color="rgb(100%, 60.160828%, 30.706787%)" offset="0.207031"/><stop stop-opacity="1" stop-color="rgb(100%, 60.357666%, 30.737305%)" offset="0.210938"/><stop stop-opacity="1" stop-color="rgb(100%, 60.554504%, 30.767822%)" offset="0.214844"/><stop stop-opacity="1" stop-color="rgb(100%, 60.752869%, 30.79834%)" offset="0.21875"/><stop stop-opacity="1" stop-color="rgb(100%, 60.949707%, 30.828857%)" offset="0.222656"/><stop stop-opacity="1" stop-color="rgb(100%, 61.146545%, 30.860901%)" offset="0.226562"/><stop stop-opacity="1" stop-color="rgb(100%, 61.343384%, 30.891418%)" offset="0.230469"/><stop stop-opacity="1" stop-color="rgb(100%, 61.540222%, 30.921936%)" offset="0.234375"/><stop stop-opacity="1" stop-color="rgb(100%, 61.737061%, 30.952454%)" offset="0.238281"/><stop stop-opacity="1" stop-color="rgb(100%, 61.935425%, 30.982971%)" offset="0.242188"/><stop stop-opacity="1" stop-color="rgb(100%, 62.132263%, 31.013489%)" offset="0.246094"/><stop stop-opacity="1" stop-color="rgb(100%, 62.329102%, 31.044006%)" offset="0.25"/><stop stop-opacity="1" stop-color="rgb(100%, 62.52594%, 31.074524%)" offset="0.253906"/><stop stop-opacity="1" stop-color="rgb(100%, 62.722778%, 31.105042%)" offset="0.257812"/><stop stop-opacity="1" stop-color="rgb(100%, 62.919617%, 31.135559%)" offset="0.261719"/><stop stop-opacity="1" stop-color="rgb(100%, 63.116455%, 31.167603%)" offset="0.265625"/><stop stop-opacity="1" stop-color="rgb(100%, 63.313293%, 31.19812%)" offset="0.269531"/><stop stop-opacity="1" stop-color="rgb(100%, 63.511658%, 31.228638%)" offset="0.273438"/><stop stop-opacity="1" stop-color="rgb(100%, 63.708496%, 31.259155%)" offset="0.277344"/><stop stop-opacity="1" stop-color="rgb(100%, 63.905334%, 31.289673%)" offset="0.28125"/><stop stop-opacity="1" stop-color="rgb(100%, 64.102173%, 31.32019%)" offset="0.285156"/><stop stop-opacity="1" stop-color="rgb(100%, 64.299011%, 31.350708%)" offset="0.289062"/><stop stop-opacity="1" stop-color="rgb(100%, 64.49585%, 31.381226%)" offset="0.292969"/><stop stop-opacity="1" stop-color="rgb(100%, 64.694214%, 31.411743%)" offset="0.296875"/><stop stop-opacity="1" stop-color="rgb(100%, 64.891052%, 31.442261%)" offset="0.300781"/><stop stop-opacity="1" stop-color="rgb(100%, 65.087891%, 31.474304%)" offset="0.304688"/><stop stop-opacity="1" stop-color="rgb(100%, 65.284729%, 31.504822%)" offset="0.308594"/><stop stop-opacity="1" stop-color="rgb(100%, 65.481567%, 31.535339%)" offset="0.3125"/><stop stop-opacity="1" stop-color="rgb(100%, 65.678406%, 31.565857%)" offset="0.316406"/><stop stop-opacity="1" stop-color="rgb(100%, 65.875244%, 31.596375%)" offset="0.320312"/><stop stop-opacity="1" stop-color="rgb(100%, 66.072083%, 31.626892%)" offset="0.324219"/><stop stop-opacity="1" stop-color="rgb(100%, 66.270447%, 31.65741%)" offset="0.328125"/><stop stop-opacity="1" stop-color="rgb(100%, 66.467285%, 31.687927%)" offset="0.332031"/><stop stop-opacity="1" stop-color="rgb(100%, 66.664124%, 31.718445%)" offset="0.335938"/><stop stop-opacity="1" stop-color="rgb(100%, 66.860962%, 31.748962%)" offset="0.339844"/><stop stop-opacity="1" stop-color="rgb(100%, 67.0578%, 31.781006%)" offset="0.34375"/><stop stop-opacity="1" stop-color="rgb(100%, 67.254639%, 31.811523%)" offset="0.347656"/><stop stop-opacity="1" stop-color="rgb(100%, 67.453003%, 31.842041%)" offset="0.351562"/><stop stop-opacity="1" stop-color="rgb(100%, 67.649841%, 31.872559%)" offset="0.355469"/><stop stop-opacity="1" stop-color="rgb(100%, 67.84668%, 31.903076%)" offset="0.359375"/><stop stop-opacity="1" stop-color="rgb(100%, 68.043518%, 31.933594%)" offset="0.363281"/><stop stop-opacity="1" stop-color="rgb(100%, 68.240356%, 31.964111%)" offset="0.367187"/><stop stop-opacity="1" stop-color="rgb(100%, 68.437195%, 31.994629%)" offset="0.371094"/><stop stop-opacity="1" stop-color="rgb(100%, 68.635559%, 32.025146%)" offset="0.375"/><stop stop-opacity="1" stop-color="rgb(100%, 68.832397%, 32.055664%)" offset="0.378906"/><stop stop-opacity="1" stop-color="rgb(100%, 69.029236%, 32.087708%)" offset="0.382812"/><stop stop-opacity="1" stop-color="rgb(100%, 69.226074%, 32.118225%)" offset="0.386719"/><stop stop-opacity="1" stop-color="rgb(100%, 69.422913%, 32.148743%)" offset="0.390625"/><stop stop-opacity="1" stop-color="rgb(100%, 69.619751%, 32.17926%)" offset="0.394531"/><stop stop-opacity="1" stop-color="rgb(100%, 69.816589%, 32.209778%)" offset="0.398438"/><stop stop-opacity="1" stop-color="rgb(100%, 70.013428%, 32.240295%)" offset="0.402344"/><stop stop-opacity="1" stop-color="rgb(100%, 70.211792%, 32.270813%)" offset="0.40625"/><stop stop-opacity="1" stop-color="rgb(100%, 70.40863%, 32.301331%)" offset="0.410156"/><stop stop-opacity="1" stop-color="rgb(100%, 70.605469%, 32.331848%)" offset="0.414062"/><stop stop-opacity="1" stop-color="rgb(100%, 70.802307%, 32.362366%)" offset="0.417969"/><stop stop-opacity="1" stop-color="rgb(100%, 70.999146%, 32.394409%)" offset="0.421875"/><stop stop-opacity="1" stop-color="rgb(100%, 71.195984%, 32.424927%)" offset="0.425781"/><stop stop-opacity="1" stop-color="rgb(100%, 71.394348%, 32.455444%)" offset="0.429688"/><stop stop-opacity="1" stop-color="rgb(100%, 71.591187%, 32.485962%)" offset="0.433594"/><stop stop-opacity="1" stop-color="rgb(100%, 71.788025%, 32.516479%)" offset="0.4375"/><stop stop-opacity="1" stop-color="rgb(100%, 71.984863%, 32.546997%)" offset="0.441406"/><stop stop-opacity="1" stop-color="rgb(100%, 72.181702%, 32.577515%)" offset="0.445312"/><stop stop-opacity="1" stop-color="rgb(100%, 72.37854%, 32.608032%)" offset="0.449219"/><stop stop-opacity="1" stop-color="rgb(100%, 72.575378%, 32.63855%)" offset="0.453125"/><stop stop-opacity="1" stop-color="rgb(100%, 72.772217%, 32.669067%)" offset="0.457031"/><stop stop-opacity="1" stop-color="rgb(100%, 72.970581%, 32.701111%)" offset="0.460937"/><stop stop-opacity="1" stop-color="rgb(100%, 73.167419%, 32.731628%)" offset="0.464844"/><stop stop-opacity="1" stop-color="rgb(100%, 73.364258%, 32.762146%)" offset="0.46875"/><stop stop-opacity="1" stop-color="rgb(100%, 73.561096%, 32.792664%)" offset="0.472656"/><stop stop-opacity="1" stop-color="rgb(100%, 73.757935%, 32.823181%)" offset="0.476562"/><stop stop-opacity="1" stop-color="rgb(100%, 73.954773%, 32.853699%)" offset="0.480469"/><stop stop-opacity="1" stop-color="rgb(100%, 74.153137%, 32.884216%)" offset="0.484375"/><stop stop-opacity="1" stop-color="rgb(100%, 74.349976%, 32.914734%)" offset="0.488281"/><stop stop-opacity="1" stop-color="rgb(100%, 74.546814%, 32.945251%)" offset="0.492187"/><stop stop-opacity="1" stop-color="rgb(100%, 74.743652%, 32.975769%)" offset="0.496094"/><stop stop-opacity="1" stop-color="rgb(100%, 74.940491%, 33.006287%)" offset="0.5"/><stop stop-opacity="1" stop-color="rgb(100%, 75.137329%, 33.036804%)" offset="0.503906"/><stop stop-opacity="1" stop-color="rgb(100%, 75.335693%, 33.068848%)" offset="0.507812"/><stop stop-opacity="1" stop-color="rgb(100%, 75.532532%, 33.099365%)" offset="0.511719"/><stop stop-opacity="1" stop-color="rgb(100%, 75.72937%, 33.129883%)" offset="0.515625"/><stop stop-opacity="1" stop-color="rgb(100%, 75.926208%, 33.1604%)" offset="0.519531"/><stop stop-opacity="1" stop-color="rgb(100%, 76.123047%, 33.190918%)" offset="0.523438"/><stop stop-opacity="1" stop-color="rgb(100%, 76.319885%, 33.221436%)" offset="0.527344"/><stop stop-opacity="1" stop-color="rgb(100%, 76.516724%, 33.251953%)" offset="0.53125"/><stop stop-opacity="1" stop-color="rgb(100%, 76.713562%, 33.282471%)" offset="0.535156"/><stop stop-opacity="1" stop-color="rgb(100%, 76.911926%, 33.312988%)" offset="0.539062"/><stop stop-opacity="1" stop-color="rgb(100%, 77.108765%, 33.343506%)" offset="0.542969"/><stop stop-opacity="1" stop-color="rgb(100%, 77.305603%, 33.375549%)" offset="0.546875"/><stop stop-opacity="1" stop-color="rgb(100%, 77.502441%, 33.406067%)" offset="0.550781"/><stop stop-opacity="1" stop-color="rgb(100%, 77.69928%, 33.436584%)" offset="0.554688"/><stop stop-opacity="1" stop-color="rgb(100%, 77.896118%, 33.467102%)" offset="0.558594"/><stop stop-opacity="1" stop-color="rgb(100%, 78.094482%, 33.49762%)" offset="0.5625"/><stop stop-opacity="1" stop-color="rgb(100%, 78.291321%, 33.528137%)" offset="0.566406"/><stop stop-opacity="1" stop-color="rgb(100%, 78.488159%, 33.558655%)" offset="0.570312"/><stop stop-opacity="1" stop-color="rgb(100%, 78.684998%, 33.589172%)" offset="0.574219"/><stop stop-opacity="1" stop-color="rgb(100%, 78.881836%, 33.61969%)" offset="0.578125"/><stop stop-opacity="1" stop-color="rgb(100%, 79.078674%, 33.650208%)" offset="0.582031"/><stop stop-opacity="1" stop-color="rgb(100%, 79.275513%, 33.682251%)" offset="0.585938"/><stop stop-opacity="1" stop-color="rgb(100%, 79.472351%, 33.712769%)" offset="0.589844"/><stop stop-opacity="1" stop-color="rgb(100%, 79.670715%, 33.743286%)" offset="0.59375"/><stop stop-opacity="1" stop-color="rgb(100%, 79.867554%, 33.773804%)" offset="0.597656"/><stop stop-opacity="1" stop-color="rgb(100%, 80.064392%, 33.804321%)" offset="0.601562"/><stop stop-opacity="1" stop-color="rgb(100%, 80.26123%, 33.834839%)" offset="0.605469"/><stop stop-opacity="1" stop-color="rgb(100%, 80.458069%, 33.865356%)" offset="0.609375"/><stop stop-opacity="1" stop-color="rgb(100%, 80.654907%, 33.895874%)" offset="0.613281"/><stop stop-opacity="1" stop-color="rgb(100%, 80.853271%, 33.926392%)" offset="0.617188"/><stop stop-opacity="1" stop-color="rgb(100%, 81.05011%, 33.956909%)" offset="0.621094"/><stop stop-opacity="1" stop-color="rgb(100%, 81.246948%, 33.988953%)" offset="0.625"/><stop stop-opacity="1" stop-color="rgb(100%, 81.443787%, 34.01947%)" offset="0.628906"/><stop stop-opacity="1" stop-color="rgb(100%, 81.640625%, 34.049988%)" offset="0.632812"/><stop stop-opacity="1" stop-color="rgb(100%, 81.837463%, 34.080505%)" offset="0.636719"/><stop stop-opacity="1" stop-color="rgb(100%, 82.035828%, 34.111023%)" offset="0.640625"/><stop stop-opacity="1" stop-color="rgb(100%, 82.232666%, 34.141541%)" offset="0.644531"/><stop stop-opacity="1" stop-color="rgb(100%, 82.429504%, 34.172058%)" offset="0.648438"/><stop stop-opacity="1" stop-color="rgb(100%, 82.626343%, 34.202576%)" offset="0.652344"/><stop stop-opacity="1" stop-color="rgb(100%, 82.823181%, 34.233093%)" offset="0.65625"/><stop stop-opacity="1" stop-color="rgb(100%, 83.02002%, 34.263611%)" offset="0.660156"/><stop stop-opacity="1" stop-color="rgb(100%, 83.216858%, 34.295654%)" offset="0.664062"/><stop stop-opacity="1" stop-color="rgb(100%, 83.413696%, 34.326172%)" offset="0.667969"/><stop stop-opacity="1" stop-color="rgb(100%, 83.612061%, 34.356689%)" offset="0.671875"/><stop stop-opacity="1" stop-color="rgb(100%, 83.808899%, 34.387207%)" offset="0.675781"/><stop stop-opacity="1" stop-color="rgb(100%, 84.005737%, 34.417725%)" offset="0.679687"/><stop stop-opacity="1" stop-color="rgb(100%, 84.202576%, 34.448242%)" offset="0.683594"/><stop stop-opacity="1" stop-color="rgb(100%, 84.399414%, 34.47876%)" offset="0.6875"/><stop stop-opacity="1" stop-color="rgb(100%, 84.596252%, 34.509277%)" offset="0.691406"/><stop stop-opacity="1" stop-color="rgb(100%, 84.794617%, 34.539795%)" offset="0.695312"/><stop stop-opacity="1" stop-color="rgb(100%, 84.991455%, 34.570312%)" offset="0.699219"/><stop stop-opacity="1" stop-color="rgb(100%, 85.188293%, 34.602356%)" offset="0.703125"/><stop stop-opacity="1" stop-color="rgb(100%, 85.385132%, 34.632874%)" offset="0.707031"/><stop stop-opacity="1" stop-color="rgb(100%, 85.58197%, 34.663391%)" offset="0.710938"/><stop stop-opacity="1" stop-color="rgb(100%, 85.778809%, 34.693909%)" offset="0.714844"/><stop stop-opacity="1" stop-color="rgb(100%, 85.975647%, 34.724426%)" offset="0.71875"/><stop stop-opacity="1" stop-color="rgb(100%, 86.172485%, 34.754944%)" offset="0.722656"/><stop stop-opacity="1" stop-color="rgb(100%, 86.37085%, 34.785461%)" offset="0.726562"/><stop stop-opacity="1" stop-color="rgb(100%, 86.567688%, 34.815979%)" offset="0.730469"/><stop stop-opacity="1" stop-color="rgb(100%, 86.764526%, 34.846497%)" offset="0.734375"/><stop stop-opacity="1" stop-color="rgb(100%, 86.930847%, 34.872437%)" offset="0.75"/><stop stop-opacity="1" stop-color="rgb(100%, 87.098694%, 34.899902%)" offset="1"/></linearGradient></defs><rect x="-37.5" width="450" fill="#ffffff" y="-37.499999" height="449.999989" fill-opacity="1"/><rect x="-37.5" width="450" fill="#ffffff" y="-37.499999" height="449.999989" fill-opacity="1"/><rect x="-37.5" width="450" fill="#ffffff" y="-37.499999" height="449.999989" fill-opacity="1"/><g clip-path="url(#864c98f43f)"><g clip-path="url(#9f3e703522)"><path fill="url(#18285ecf2f)" d="M 0.0703125 163.75 L 0.0703125 208.738281 L 51.660156 208.738281 L 51.660156 163.75 Z M 0.0703125 163.75 " fill-rule="nonzero"/></g></g><g fill="#000000" fill-opacity="1"><g transform="translate(10.293013, 201.24674)"><g><path d="M 22.15625 -17.8125 L 22.15625 -28.5625 L 27.78125 -28.5625 L 27.78125 0 L 22.15625 0 L 22.15625 -13.015625 L 9.359375 -13.015625 L 9.359375 0 L 3.71875 0 L 3.71875 -28.5625 L 9.359375 -28.5625 L 9.359375 -17.8125 Z M 22.15625 -17.8125 "/></g></g></g><g fill="#000000" fill-opacity="1"><g transform="translate(52.109458, 202.499987)"><g><path d="M 12.515625 0.40625 C 10.410156 0.40625 8.5625 -0.0234375 6.96875 -0.890625 C 5.375 -1.753906 4.132812 -3.019531 3.25 -4.6875 C 2.375 -6.363281 1.9375 -8.390625 1.9375 -10.765625 C 1.9375 -13.128906 2.375 -15.148438 3.25 -16.828125 C 4.132812 -18.515625 5.375 -19.789062 6.96875 -20.65625 C 8.5625 -21.519531 10.410156 -21.953125 12.515625 -21.953125 C 14.628906 -21.953125 16.484375 -21.519531 18.078125 -20.65625 C 19.671875 -19.789062 20.910156 -18.515625 21.796875 -16.828125 C 22.679688 -15.148438 23.125 -13.128906 23.125 -10.765625 C 23.125 -8.390625 22.679688 -6.363281 21.796875 -4.6875 C 20.910156 -3.019531 19.671875 -1.753906 18.078125 -0.890625 C 16.484375 -0.0234375 14.628906 0.40625 12.515625 0.40625 Z M 12.515625 -4.1875 C 15.867188 -4.1875 17.546875 -6.378906 17.546875 -10.765625 C 17.546875 -13.046875 17.113281 -14.710938 16.25 -15.765625 C 15.394531 -16.828125 14.148438 -17.359375 12.515625 -17.359375 C 9.171875 -17.359375 7.5 -15.160156 7.5 -10.765625 C 7.5 -6.378906 9.171875 -4.1875 12.515625 -4.1875 Z M 12.515625 -4.1875 "/></g></g></g><g fill="#000000" fill-opacity="1"><g transform="translate(77.146074, 202.499987)"><g><path d="M 3.109375 0 L 3.109375 -21.546875 L 8.296875 -21.546875 L 8.296875 -18.375 L 8.71875 -18.28125 C 10.050781 -20.726562 12.222656 -21.953125 15.234375 -21.953125 C 17.722656 -21.953125 19.550781 -21.273438 20.71875 -19.921875 C 21.882812 -18.566406 22.46875 -16.59375 22.46875 -14 L 22.46875 0 L 17.046875 0 L 17.046875 -13.34375 C 17.046875 -14.769531 16.757812 -15.800781 16.1875 -16.4375 C 15.613281 -17.070312 14.695312 -17.390625 13.4375 -17.390625 C 11.882812 -17.390625 10.675781 -16.882812 9.8125 -15.875 C 8.945312 -14.875 8.515625 -13.300781 8.515625 -11.15625 L 8.515625 0 Z M 3.109375 0 "/></g></g></g><g fill="#000000" fill-opacity="1"><g transform="translate(102.377983, 202.499987)"><g><path d="M 21.296875 -9.546875 L 7.4375 -9.546875 C 7.59375 -7.671875 8.125 -6.304688 9.03125 -5.453125 C 9.945312 -4.609375 11.195312 -4.1875 12.78125 -4.1875 C 14.007812 -4.1875 15.007812 -4.414062 15.78125 -4.875 C 16.550781 -5.332031 17.171875 -6.03125 17.640625 -6.96875 L 18.046875 -6.96875 L 21.640625 -4.671875 C 20.941406 -3.160156 19.878906 -1.9375 18.453125 -1 C 17.035156 -0.0625 15.144531 0.40625 12.78125 0.40625 C 10.550781 0.40625 8.625 -0.015625 7 -0.859375 C 5.382812 -1.703125 4.132812 -2.960938 3.25 -4.640625 C 2.375 -6.316406 1.9375 -8.359375 1.9375 -10.765625 C 1.9375 -13.210938 2.394531 -15.273438 3.3125 -16.953125 C 4.238281 -18.628906 5.488281 -19.878906 7.0625 -20.703125 C 8.644531 -21.535156 10.421875 -21.953125 12.390625 -21.953125 C 15.429688 -21.953125 17.757812 -21.144531 19.375 -19.53125 C 21 -17.914062 21.8125 -15.546875 21.8125 -12.421875 C 21.8125 -11.285156 21.773438 -10.40625 21.703125 -9.78125 Z M 16.640625 -13.046875 C 16.585938 -14.691406 16.207031 -15.882812 15.5 -16.625 C 14.789062 -17.375 13.753906 -17.75 12.390625 -17.75 C 9.648438 -17.75 8.039062 -16.179688 7.5625 -13.046875 Z M 16.640625 -13.046875 "/></g></g></g><g fill="#000000" fill-opacity="1"><g transform="translate(125.793669, 202.499987)"><g><path d="M 4.765625 9.140625 C 3.835938 9.140625 3 9.066406 2.25 8.921875 C 1.507812 8.785156 0.90625 8.597656 0.4375 8.359375 L 1.296875 3.984375 L 1.640625 3.875 C 1.960938 4.039062 2.363281 4.175781 2.84375 4.28125 C 3.332031 4.382812 3.832031 4.4375 4.34375 4.4375 C 5.207031 4.4375 5.929688 4.320312 6.515625 4.09375 C 7.097656 3.863281 7.585938 3.484375 7.984375 2.953125 C 8.390625 2.429688 8.75 1.703125 9.0625 0.765625 L 0.46875 -21.546875 L 6.140625 -21.546875 L 11.484375 -6.5625 L 11.953125 -6.5625 L 17.171875 -21.546875 L 22.671875 -21.546875 L 14.03125 1.34375 C 13.332031 3.195312 12.570312 4.6875 11.75 5.8125 C 10.925781 6.9375 9.945312 7.769531 8.8125 8.3125 C 7.6875 8.863281 6.335938 9.140625 4.765625 9.140625 Z M 4.765625 9.140625 "/></g></g></g><g fill="#000000" fill-opacity="1"><g transform="translate(148.916409, 202.499987)"><g><path d="M 15.0625 0.40625 C 12.3125 0.40625 10.265625 -0.617188 8.921875 -2.671875 L 8.515625 -2.59375 L 8.515625 0 L 3.109375 0 L 3.109375 -30.203125 L 8.515625 -30.203125 L 8.515625 -19 L 8.921875 -18.921875 C 9.671875 -19.953125 10.546875 -20.710938 11.546875 -21.203125 C 12.554688 -21.703125 13.765625 -21.953125 15.171875 -21.953125 C 16.921875 -21.953125 18.445312 -21.539062 19.75 -20.71875 C 21.050781 -19.90625 22.066406 -18.660156 22.796875 -16.984375 C 23.523438 -15.304688 23.890625 -13.234375 23.890625 -10.765625 C 23.890625 -8.316406 23.507812 -6.253906 22.75 -4.578125 C 22 -2.910156 20.957031 -1.660156 19.625 -0.828125 C 18.300781 -0.00390625 16.78125 0.40625 15.0625 0.40625 Z M 13.421875 -4.1875 C 15.003906 -4.1875 16.210938 -4.710938 17.046875 -5.765625 C 17.878906 -6.828125 18.296875 -8.492188 18.296875 -10.765625 C 18.296875 -13.046875 17.878906 -14.710938 17.046875 -15.765625 C 16.210938 -16.828125 15.003906 -17.359375 13.421875 -17.359375 C 11.898438 -17.359375 10.691406 -16.8125 9.796875 -15.71875 C 8.898438 -14.625 8.453125 -12.972656 8.453125 -10.765625 C 8.453125 -8.546875 8.898438 -6.894531 9.796875 -5.8125 C 10.691406 -4.726562 11.898438 -4.1875 13.421875 -4.1875 Z M 13.421875 -4.1875 "/></g></g></g><g fill="#000000" fill-opacity="1"><g transform="translate(174.714675, 202.499987)"><g><path d="M 21.296875 -9.546875 L 7.4375 -9.546875 C 7.59375 -7.671875 8.125 -6.304688 9.03125 -5.453125 C 9.945312 -4.609375 11.195312 -4.1875 12.78125 -4.1875 C 14.007812 -4.1875 15.007812 -4.414062 15.78125 -4.875 C 16.550781 -5.332031 17.171875 -6.03125 17.640625 -6.96875 L 18.046875 -6.96875 L 21.640625 -4.671875 C 20.941406 -3.160156 19.878906 -1.9375 18.453125 -1 C 17.035156 -0.0625 15.144531 0.40625 12.78125 0.40625 C 10.550781 0.40625 8.625 -0.015625 7 -0.859375 C 5.382812 -1.703125 4.132812 -2.960938 3.25 -4.640625 C 2.375 -6.316406 1.9375 -8.359375 1.9375 -10.765625 C 1.9375 -13.210938 2.394531 -15.273438 3.3125 -16.953125 C 4.238281 -18.628906 5.488281 -19.878906 7.0625 -20.703125 C 8.644531 -21.535156 10.421875 -21.953125 12.390625 -21.953125 C 15.429688 -21.953125 17.757812 -21.144531 19.375 -19.53125 C 21 -17.914062 21.8125 -15.546875 21.8125 -12.421875 C 21.8125 -11.285156 21.773438 -10.40625 21.703125 -9.78125 Z M 16.640625 -13.046875 C 16.585938 -14.691406 16.207031 -15.882812 15.5 -16.625 C 14.789062 -17.375 13.753906 -17.75 12.390625 -17.75 C 9.648438 -17.75 8.039062 -16.179688 7.5625 -13.046875 Z M 16.640625 -13.046875 "/></g></g></g><g fill="#000000" fill-opacity="1"><g transform="translate(198.130361, 202.499987)"><g><path d="M 21.296875 -9.546875 L 7.4375 -9.546875 C 7.59375 -7.671875 8.125 -6.304688 9.03125 -5.453125 C 9.945312 -4.609375 11.195312 -4.1875 12.78125 -4.1875 C 14.007812 -4.1875 15.007812 -4.414062 15.78125 -4.875 C 16.550781 -5.332031 17.171875 -6.03125 17.640625 -6.96875 L 18.046875 -6.96875 L 21.640625 -4.671875 C 20.941406 -3.160156 19.878906 -1.9375 18.453125 -1 C 17.035156 -0.0625 15.144531 0.40625 12.78125 0.40625 C 10.550781 0.40625 8.625 -0.015625 7 -0.859375 C 5.382812 -1.703125 4.132812 -2.960938 3.25 -4.640625 C 2.375 -6.316406 1.9375 -8.359375 1.9375 -10.765625 C 1.9375 -13.210938 2.394531 -15.273438 3.3125 -16.953125 C 4.238281 -18.628906 5.488281 -19.878906 7.0625 -20.703125 C 8.644531 -21.535156 10.421875 -21.953125 12.390625 -21.953125 C 15.429688 -21.953125 17.757812 -21.144531 19.375 -19.53125 C 21 -17.914062 21.8125 -15.546875 21.8125 -12.421875 C 21.8125 -11.285156 21.773438 -10.40625 21.703125 -9.78125 Z M 16.640625 -13.046875 C 16.585938 -14.691406 16.207031 -15.882812 15.5 -16.625 C 14.789062 -17.375 13.753906 -17.75 12.390625 -17.75 C 9.648438 -17.75 8.039062 -16.179688 7.5625 -13.046875 Z M 16.640625 -13.046875 "/></g></g></g><g fill="#000000" fill-opacity="1"><g transform="translate(227.589834, 202.499987)"><g><path d="M 22.890625 -28.5625 L 22.890625 -23.8125 L 14.65625 -23.8125 L 14.65625 0 L 9.03125 0 L 9.03125 -23.8125 L 0.78125 -23.8125 L 0.78125 -28.5625 Z M 22.890625 -28.5625 "/></g></g></g><g fill="#000000" fill-opacity="1"><g transform="translate(251.259396, 202.499987)"><g><path d="M 3.109375 0 L 3.109375 -21.546875 L 8.359375 -21.546875 L 8.359375 -18.34375 L 8.765625 -18.265625 C 9.285156 -19.460938 9.96875 -20.335938 10.8125 -20.890625 C 11.664062 -21.453125 12.695312 -21.734375 13.90625 -21.734375 C 15.132812 -21.734375 16.066406 -21.523438 16.703125 -21.109375 L 15.78125 -16.453125 L 15.375 -16.375 C 15.019531 -16.507812 14.679688 -16.609375 14.359375 -16.671875 C 14.035156 -16.742188 13.640625 -16.78125 13.171875 -16.78125 C 11.660156 -16.78125 10.503906 -16.25 9.703125 -15.1875 C 8.910156 -14.125 8.515625 -12.421875 8.515625 -10.078125 L 8.515625 0 Z M 3.109375 0 "/></g></g></g><g fill="#000000" fill-opacity="1"><g transform="translate(268.152281, 202.499987)"><g><path d="M 8.40625 0.40625 C 7.019531 0.40625 5.816406 0.15625 4.796875 -0.34375 C 3.785156 -0.851562 3.003906 -1.597656 2.453125 -2.578125 C 1.910156 -3.566406 1.640625 -4.753906 1.640625 -6.140625 C 1.640625 -7.410156 1.910156 -8.476562 2.453125 -9.34375 C 3.003906 -10.207031 3.851562 -10.914062 5 -11.46875 C 6.144531 -12.03125 7.644531 -12.457031 9.5 -12.75 C 10.78125 -12.957031 11.753906 -13.1875 12.421875 -13.4375 C 13.097656 -13.6875 13.550781 -13.96875 13.78125 -14.28125 C 14.019531 -14.59375 14.140625 -14.988281 14.140625 -15.46875 C 14.140625 -16.15625 13.898438 -16.679688 13.421875 -17.046875 C 12.941406 -17.410156 12.140625 -17.59375 11.015625 -17.59375 C 9.816406 -17.59375 8.675781 -17.328125 7.59375 -16.796875 C 6.519531 -16.265625 5.582031 -15.5625 4.78125 -14.6875 L 4.390625 -14.6875 L 2.125 -18.109375 C 3.21875 -19.316406 4.550781 -20.257812 6.125 -20.9375 C 7.707031 -21.613281 9.429688 -21.953125 11.296875 -21.953125 C 14.140625 -21.953125 16.195312 -21.347656 17.46875 -20.140625 C 18.75 -18.929688 19.390625 -17.210938 19.390625 -14.984375 L 19.390625 -5.625 C 19.390625 -4.664062 19.816406 -4.1875 20.671875 -4.1875 C 20.992188 -4.1875 21.3125 -4.242188 21.625 -4.359375 L 21.890625 -4.28125 L 22.28125 -0.515625 C 21.988281 -0.316406 21.570312 -0.15625 21.03125 -0.03125 C 20.5 0.09375 19.914062 0.15625 19.28125 0.15625 C 17.988281 0.15625 16.976562 -0.0859375 16.25 -0.578125 C 15.53125 -1.078125 15.015625 -1.851562 14.703125 -2.90625 L 14.296875 -2.953125 C 13.242188 -0.710938 11.28125 0.40625 8.40625 0.40625 Z M 10.125 -3.640625 C 11.375 -3.640625 12.367188 -4.054688 13.109375 -4.890625 C 13.859375 -5.734375 14.234375 -6.90625 14.234375 -8.40625 L 14.234375 -10.59375 L 13.875 -10.671875 C 13.539062 -10.410156 13.109375 -10.191406 12.578125 -10.015625 C 12.054688 -9.835938 11.300781 -9.664062 10.3125 -9.5 C 9.144531 -9.300781 8.300781 -8.960938 7.78125 -8.484375 C 7.269531 -8.015625 7.015625 -7.34375 7.015625 -6.46875 C 7.015625 -5.539062 7.285156 -4.835938 7.828125 -4.359375 C 8.378906 -3.878906 9.144531 -3.640625 10.125 -3.640625 Z M 10.125 -3.640625 "/></g></g></g><g fill="#000000" fill-opacity="1"><g transform="translate(290.864911, 202.499987)"><g><path d="M 12.5625 0.40625 C 10.476562 0.40625 8.632812 -0.0234375 7.03125 -0.890625 C 5.425781 -1.753906 4.175781 -3.023438 3.28125 -4.703125 C 2.382812 -6.390625 1.9375 -8.410156 1.9375 -10.765625 C 1.9375 -13.128906 2.382812 -15.148438 3.28125 -16.828125 C 4.175781 -18.515625 5.414062 -19.789062 7 -20.65625 C 8.59375 -21.519531 10.414062 -21.953125 12.46875 -21.953125 C 17.007812 -21.953125 19.914062 -20.304688 21.1875 -17.015625 L 17.484375 -14.359375 L 17.078125 -14.359375 C 16.628906 -15.367188 16.050781 -16.117188 15.34375 -16.609375 C 14.632812 -17.109375 13.675781 -17.359375 12.46875 -17.359375 C 10.90625 -17.359375 9.6875 -16.816406 8.8125 -15.734375 C 7.9375 -14.660156 7.5 -13.003906 7.5 -10.765625 C 7.5 -8.546875 7.941406 -6.894531 8.828125 -5.8125 C 9.710938 -4.726562 10.957031 -4.1875 12.5625 -4.1875 C 13.726562 -4.1875 14.71875 -4.5 15.53125 -5.125 C 16.351562 -5.757812 16.9375 -6.671875 17.28125 -7.859375 L 17.703125 -7.890625 L 21.546875 -5.78125 C 20.992188 -3.957031 19.976562 -2.46875 18.5 -1.3125 C 17.03125 -0.164062 15.050781 0.40625 12.5625 0.40625 Z M 12.5625 0.40625 "/></g></g></g><g fill="#000000" fill-opacity="1"><g transform="translate(313.069778, 202.499987)"><g><path d="M 3.109375 0 L 3.109375 -30.203125 L 8.515625 -30.203125 L 8.515625 -13.4375 L 9.046875 -13.4375 L 15.28125 -21.546875 L 20.765625 -21.546875 L 20.765625 -21.09375 L 13.4375 -11.640625 L 21.578125 -0.484375 L 21.578125 0 L 15.875 0 L 9.046875 -9.078125 L 8.515625 -9.078125 L 8.515625 0 Z M 3.109375 0 "/></g></g></g><g fill="#000000" fill-opacity="1"><g transform="translate(334.688764, 202.499987)"><g><path d="M 21.296875 -9.546875 L 7.4375 -9.546875 C 7.59375 -7.671875 8.125 -6.304688 9.03125 -5.453125 C 9.945312 -4.609375 11.195312 -4.1875 12.78125 -4.1875 C 14.007812 -4.1875 15.007812 -4.414062 15.78125 -4.875 C 16.550781 -5.332031 17.171875 -6.03125 17.640625 -6.96875 L 18.046875 -6.96875 L 21.640625 -4.671875 C 20.941406 -3.160156 19.878906 -1.9375 18.453125 -1 C 17.035156 -0.0625 15.144531 0.40625 12.78125 0.40625 C 10.550781 0.40625 8.625 -0.015625 7 -0.859375 C 5.382812 -1.703125 4.132812 -2.960938 3.25 -4.640625 C 2.375 -6.316406 1.9375 -8.359375 1.9375 -10.765625 C 1.9375 -13.210938 2.394531 -15.273438 3.3125 -16.953125 C 4.238281 -18.628906 5.488281 -19.878906 7.0625 -20.703125 C 8.644531 -21.535156 10.421875 -21.953125 12.390625 -21.953125 C 15.429688 -21.953125 17.757812 -21.144531 19.375 -19.53125 C 21 -17.914062 21.8125 -15.546875 21.8125 -12.421875 C 21.8125 -11.285156 21.773438 -10.40625 21.703125 -9.78125 Z M 16.640625 -13.046875 C 16.585938 -14.691406 16.207031 -15.882812 15.5 -16.625 C 14.789062 -17.375 13.753906 -17.75 12.390625 -17.75 C 9.648438 -17.75 8.039062 -16.179688 7.5625 -13.046875 Z M 16.640625 -13.046875 "/></g></g></g><g fill="#000000" fill-opacity="1"><g transform="translate(358.10445, 202.499987)"><g><path d="M 3.109375 0 L 3.109375 -21.546875 L 8.359375 -21.546875 L 8.359375 -18.34375 L 8.765625 -18.265625 C 9.285156 -19.460938 9.96875 -20.335938 10.8125 -20.890625 C 11.664062 -21.453125 12.695312 -21.734375 13.90625 -21.734375 C 15.132812 -21.734375 16.066406 -21.523438 16.703125 -21.109375 L 15.78125 -16.453125 L 15.375 -16.375 C 15.019531 -16.507812 14.679688 -16.609375 14.359375 -16.671875 C 14.035156 -16.742188 13.640625 -16.78125 13.171875 -16.78125 C 11.660156 -16.78125 10.503906 -16.25 9.703125 -15.1875 C 8.910156 -14.125 8.515625 -12.421875 8.515625 -10.078125 L 8.515625 0 Z M 3.109375 0 "/></g></g></g></svg>