<svg xmlns="http://www.w3.org/2000/svg" xmlns:xlink="http://www.w3.org/1999/xlink" width="500" zoomAndPan="magnify" viewBox="0 0 375 374.999991" height="500" preserveAspectRatio="xMidYMid meet" version="1.0"><defs><clipPath id="867d6852e7"><path d="M 47.84375 66 L 251 66 L 251 375 L 47.84375 375 Z M 47.84375 66 " clip-rule="nonzero"/></clipPath><clipPath id="6fbd941499"><path d="M 139 0 L 326.84375 0 L 326.84375 178 L 139 178 Z M 139 0 " clip-rule="nonzero"/></clipPath></defs><path fill="#fdc85c" d="M 243.660156 367.625 L 55.078125 367.625 L 55.078125 153.492188 L 98.738281 73.839844 L 200.003906 73.839844 L 243.660156 152.714844 Z M 243.660156 367.625 " fill-opacity="1" fill-rule="nonzero"/><path fill="#f5b445" d="M 164.09375 76.425781 L 209.820312 158.40625 L 209.820312 374.089844 L 248.3125 374.089844 L 248.828125 151.421875 L 200.777344 70.21875 Z M 164.09375 76.425781 " fill-opacity="1" fill-rule="nonzero"/><g clip-path="url(#867d6852e7)"><path fill="#004463" d="M 250.894531 374.867188 L 47.84375 374.867188 L 47.84375 151.683594 L 94.601562 66.597656 L 204.136719 66.597656 L 250.894531 150.90625 Z M 62.3125 360.382812 L 236.429688 360.382812 L 236.429688 154.527344 L 195.613281 81.078125 L 103.128906 81.078125 L 62.3125 155.5625 Z M 62.3125 360.382812 " fill-opacity="1" fill-rule="nonzero"/></g><path fill="#004463" d="M 149.371094 165.648438 C 142.910156 165.648438 136.453125 163.578125 131.027344 158.921875 C 118.628906 148.835938 116.820312 130.214844 126.894531 117.804688 C 136.96875 105.390625 155.570312 103.578125 167.96875 113.664062 C 180.371094 124.269531 182.179688 142.628906 171.84375 155.042969 C 166.160156 162.027344 157.894531 165.648438 149.371094 165.648438 Z M 138.261719 127.113281 C 133.09375 133.320312 134.128906 142.628906 140.328125 147.542969 C 146.527344 152.714844 155.828125 151.683594 160.738281 145.476562 C 165.902344 139.269531 164.871094 129.957031 158.667969 125.042969 C 152.46875 120.128906 143.167969 121.164062 138.261719 127.113281 Z M 138.261719 127.113281 " fill-opacity="1" fill-rule="nonzero"/><g clip-path="url(#6fbd941499)"><path fill="#004463" d="M 312.894531 177.800781 C 312.636719 176.507812 275.695312 55.734375 223.253906 26.511719 C 200.777344 14.097656 183.726562 11.511719 172.878906 19.269531 C 149.886719 35.304688 153.503906 92.976562 156.601562 113.664062 L 142.136719 115.992188 C 141.621094 112.628906 129.476562 31.683594 164.351562 7.375 C 180.371094 -3.746094 202.328125 -1.675781 230.226562 13.839844 C 287.835938 45.90625 325.035156 168.492188 326.585938 173.664062 Z M 312.894531 177.800781 " fill-opacity="1" fill-rule="nonzero"/></g></svg>