<svg xmlns="http://www.w3.org/2000/svg" xmlns:xlink="http://www.w3.org/1999/xlink" width="100" zoomAndPan="magnify" viewBox="0 0 75 74.999997" height="100" preserveAspectRatio="xMidYMid meet" version="1.0"><defs><clipPath id="3c3c3cd0b7"><path d="M 4.625 21.664062 L 44.757812 21.664062 L 44.757812 75 L 4.625 75 Z M 4.625 21.664062 " clip-rule="nonzero"/></clipPath><clipPath id="032157160a"><path d="M 68.808594 9.671875 L 70.5625 9.671875 L 70.5625 11.453125 L 68.808594 11.453125 Z M 68.808594 9.671875 " clip-rule="nonzero"/></clipPath></defs><g clip-path="url(#3c3c3cd0b7)"><path fill="#96d4d0" d="M 38.292969 42.167969 L 38.292969 42.160156 C 38.28125 41.9375 38.257812 41.710938 38.226562 41.488281 C 38.203125 41.300781 38.027344 41.167969 37.839844 41.195312 C 37.648438 41.21875 37.519531 41.394531 37.542969 41.582031 C 37.574219 41.785156 37.59375 41.988281 37.601562 42.195312 C 37.621094 42.730469 37.574219 43.242188 37.472656 43.714844 C 37.429688 43.902344 37.546875 44.085938 37.734375 44.125 C 37.902344 44.160156 38.070312 44.070312 38.128906 43.914062 C 38.136719 43.898438 38.140625 43.882812 38.144531 43.863281 C 38.261719 43.332031 38.3125 42.761719 38.292969 42.167969 Z M 37.351562 45.085938 C 37.191406 44.980469 36.980469 45.027344 36.875 45.1875 C 36.460938 45.828125 35.996094 46.285156 35.410156 46.625 C 35.238281 46.703125 35.160156 46.902344 35.234375 47.074219 C 35.3125 47.25 35.515625 47.328125 35.691406 47.253906 L 35.738281 47.230469 C 36.421875 46.835938 36.980469 46.289062 37.457031 45.558594 C 37.46875 45.539062 37.480469 45.519531 37.488281 45.496094 C 37.546875 45.347656 37.492188 45.175781 37.351562 45.085938 Z M 37.789062 39.753906 C 37.523438 39.035156 37.15625 38.335938 36.695312 37.675781 C 36.585938 37.519531 36.371094 37.480469 36.214844 37.589844 C 36.058594 37.695312 36.019531 37.910156 36.128906 38.066406 C 36.558594 38.679688 36.898438 39.328125 37.144531 39.992188 C 37.210938 40.167969 37.40625 40.257812 37.585938 40.195312 C 37.683594 40.15625 37.753906 40.085938 37.789062 39.996094 C 37.816406 39.921875 37.820312 39.835938 37.789062 39.753906 Z M 44.640625 21.925781 C 44.550781 21.761719 44.339844 21.699219 44.171875 21.792969 C 43.816406 21.988281 43.445312 22.1875 43.085938 22.382812 C 42.785156 22.542969 42.480469 22.707031 42.175781 22.875 C 42.011719 22.964844 41.949219 23.175781 42.039062 23.34375 C 42.132812 23.507812 42.339844 23.570312 42.507812 23.476562 C 42.8125 23.3125 43.113281 23.148438 43.414062 22.988281 C 43.773438 22.792969 44.144531 22.59375 44.507812 22.394531 C 44.582031 22.351562 44.632812 22.289062 44.660156 22.21875 C 44.695312 22.125 44.691406 22.019531 44.640625 21.925781 Z M 34.277344 47.460938 C 34.238281 47.277344 34.050781 47.160156 33.867188 47.203125 C 33.160156 47.363281 32.4375 47.398438 31.722656 47.316406 C 31.535156 47.292969 31.363281 47.429688 31.339844 47.617188 C 31.316406 47.804688 31.453125 47.976562 31.640625 48 C 32.433594 48.089844 33.234375 48.050781 34.019531 47.871094 C 34.132812 47.847656 34.222656 47.765625 34.265625 47.664062 C 34.289062 47.601562 34.292969 47.53125 34.277344 47.460938 Z M 41.105469 23.785156 C 41.023438 23.613281 40.820312 23.539062 40.648438 23.621094 C 39.890625 23.976562 39.148438 24.304688 38.582031 24.554688 C 38.410156 24.632812 38.332031 24.835938 38.40625 25.007812 C 38.484375 25.179688 38.6875 25.257812 38.863281 25.183594 C 39.429688 24.933594 40.175781 24.601562 40.941406 24.242188 C 41.023438 24.203125 41.085938 24.136719 41.113281 24.054688 C 41.148438 23.972656 41.148438 23.875 41.105469 23.785156 Z M 35.558594 36.3125 C 35.355469 36.105469 35.136719 35.902344 34.917969 35.707031 L 34.90625 35.699219 C 34.535156 35.390625 34.136719 35.105469 33.726562 34.84375 C 33.566406 34.742188 33.355469 34.789062 33.25 34.949219 C 33.148438 35.109375 33.195312 35.320312 33.355469 35.421875 C 33.742188 35.667969 34.113281 35.9375 34.464844 36.226562 C 34.671875 36.40625 34.875 36.597656 35.0625 36.792969 C 35.199219 36.925781 35.414062 36.929688 35.550781 36.796875 C 35.585938 36.761719 35.613281 36.71875 35.632812 36.675781 C 35.679688 36.554688 35.65625 36.410156 35.558594 36.3125 Z M 30.144531 46.917969 C 29.472656 46.65625 28.855469 46.28125 28.304688 45.808594 C 28.160156 45.6875 27.941406 45.703125 27.820312 45.847656 C 27.695312 45.988281 27.710938 46.207031 27.855469 46.332031 C 28.464844 46.855469 29.148438 47.265625 29.890625 47.558594 C 30.066406 47.628906 30.265625 47.542969 30.335938 47.363281 C 30.40625 47.1875 30.320312 46.988281 30.144531 46.917969 Z M 37.460938 25.421875 C 37.382812 25.25 37.179688 25.171875 37.007812 25.246094 C 36.382812 25.523438 35.648438 25.847656 34.925781 26.179688 C 34.753906 26.261719 34.679688 26.464844 34.761719 26.636719 C 34.839844 26.808594 35.046875 26.882812 35.21875 26.804688 C 35.933594 26.472656 36.664062 26.148438 37.285156 25.875 C 37.371094 25.835938 37.433594 25.769531 37.46875 25.6875 C 37.5 25.605469 37.5 25.507812 37.460938 25.421875 Z M 32.175781 34 C 31.949219 33.894531 31.714844 33.796875 31.484375 33.707031 C 31 33.519531 30.492188 33.351562 29.976562 33.21875 C 29.792969 33.171875 29.605469 33.28125 29.558594 33.464844 C 29.507812 33.648438 29.617188 33.835938 29.804688 33.882812 C 30.292969 34.011719 30.773438 34.167969 31.234375 34.347656 C 31.453125 34.433594 31.671875 34.527344 31.886719 34.625 C 32.058594 34.703125 32.265625 34.628906 32.34375 34.453125 C 32.347656 34.449219 32.347656 34.441406 32.351562 34.4375 C 32.417969 34.269531 32.339844 34.074219 32.175781 34 Z M 27.179688 44.605469 C 26.722656 44.015625 26.351562 43.40625 26.042969 42.738281 C 25.964844 42.566406 25.757812 42.488281 25.585938 42.570312 C 25.414062 42.648438 25.339844 42.851562 25.417969 43.023438 C 25.742188 43.730469 26.152344 44.40625 26.636719 45.027344 C 26.753906 45.175781 26.96875 45.203125 27.121094 45.085938 C 27.171875 45.046875 27.207031 44.996094 27.230469 44.941406 C 27.269531 44.832031 27.257812 44.703125 27.179688 44.605469 Z M 33.828125 27.085938 C 33.742188 26.914062 33.535156 26.847656 33.367188 26.933594 C 32.636719 27.296875 31.976562 27.652344 31.347656 28.015625 C 31.183594 28.113281 31.125 28.324219 31.222656 28.488281 C 31.316406 28.652344 31.527344 28.707031 31.691406 28.613281 C 32.308594 28.253906 32.957031 27.90625 33.675781 27.546875 C 33.753906 27.507812 33.8125 27.441406 33.839844 27.363281 C 33.875 27.277344 33.875 27.175781 33.828125 27.085938 Z M 30.34375 29.03125 C 30.238281 28.871094 30.023438 28.828125 29.867188 28.933594 C 29.390625 29.25 28.921875 29.578125 28.480469 29.914062 L 28.199219 30.039062 L 28.15625 30.074219 C 28.09375 30.136719 28.027344 30.195312 27.960938 30.253906 C 27.820312 30.378906 27.8125 30.597656 27.941406 30.738281 C 28.066406 30.878906 28.285156 30.886719 28.425781 30.761719 C 28.476562 30.714844 28.527344 30.667969 28.578125 30.625 L 28.832031 30.511719 L 28.863281 30.488281 C 29.304688 30.152344 29.769531 29.820312 30.246094 29.503906 C 30.308594 29.464844 30.351562 29.410156 30.378906 29.34375 C 30.417969 29.246094 30.410156 29.125 30.34375 29.03125 Z M 25.476562 41.171875 C 25.25 40.390625 25.097656 39.679688 25.007812 39.007812 C 24.984375 38.816406 24.808594 38.6875 24.621094 38.710938 C 24.433594 38.738281 24.300781 38.910156 24.324219 39.097656 C 24.421875 39.804688 24.578125 40.546875 24.8125 41.363281 C 24.863281 41.542969 25.054688 41.648438 25.238281 41.597656 C 25.347656 41.566406 25.425781 41.488281 25.464844 41.390625 C 25.492188 41.324219 25.496094 41.246094 25.476562 41.171875 Z M 28.25 32.878906 C 27.992188 32.84375 27.726562 32.8125 27.464844 32.789062 L 27.457031 32.789062 C 27.140625 32.769531 26.824219 32.757812 26.511719 32.757812 C 26.722656 32.484375 26.953125 32.214844 27.210938 31.9375 C 27.339844 31.800781 27.332031 31.582031 27.195312 31.453125 C 27.054688 31.324219 26.835938 31.332031 26.707031 31.46875 C 26.308594 31.894531 25.972656 32.308594 25.675781 32.734375 C 25.546875 32.929688 25.425781 33.136719 25.308594 33.371094 C 25.226562 33.542969 25.292969 33.75 25.464844 33.832031 C 25.636719 33.917969 25.84375 33.847656 25.925781 33.679688 C 25.964844 33.597656 26.003906 33.523438 26.046875 33.453125 C 26.492188 33.4375 26.953125 33.445312 27.410156 33.476562 C 27.660156 33.496094 27.910156 33.523438 28.15625 33.558594 C 28.316406 33.578125 28.464844 33.488281 28.523438 33.34375 C 28.53125 33.316406 28.539062 33.292969 28.542969 33.265625 C 28.570312 33.074219 28.4375 32.902344 28.25 32.878906 Z M 25.074219 34.789062 C 24.890625 34.726562 24.695312 34.824219 24.636719 35.003906 C 24.390625 35.726562 24.253906 36.507812 24.226562 37.328125 C 24.222656 37.515625 24.371094 37.675781 24.5625 37.683594 C 24.710938 37.6875 24.839844 37.59375 24.894531 37.464844 C 24.90625 37.429688 24.914062 37.390625 24.917969 37.347656 C 24.941406 36.597656 25.066406 35.882812 25.289062 35.222656 C 25.351562 35.042969 25.253906 34.847656 25.074219 34.789062 Z M 24.558594 33.21875 C 24.53125 33.03125 24.355469 32.902344 24.167969 32.933594 C 23.429688 33.046875 22.691406 33.21875 21.976562 33.445312 L 21.894531 33.472656 C 21.714844 33.539062 21.621094 33.734375 21.683594 33.914062 C 21.75 34.09375 21.945312 34.183594 22.125 34.121094 L 22.1875 34.097656 C 22.871094 33.882812 23.570312 33.71875 24.269531 33.609375 C 24.398438 33.589844 24.496094 33.507812 24.539062 33.394531 C 24.5625 33.339844 24.570312 33.28125 24.558594 33.21875 Z M 5.464844 73.1875 C 5.449219 73 5.285156 72.855469 5.09375 72.871094 C 4.90625 72.886719 4.761719 73.050781 4.777344 73.238281 C 4.824219 73.828125 4.878906 74.417969 4.941406 75.003906 L 5.636719 75.003906 C 5.566406 74.402344 5.511719 73.792969 5.464844 73.1875 Z M 20.722656 34.292969 C 20.644531 34.121094 20.441406 34.046875 20.265625 34.125 C 19.601562 34.429688 18.996094 34.769531 18.414062 35.164062 L 18.242188 35.28125 C 18.085938 35.390625 18.050781 35.605469 18.160156 35.761719 C 18.269531 35.914062 18.484375 35.953125 18.640625 35.84375 L 18.804688 35.730469 C 19.351562 35.359375 19.925781 35.039062 20.554688 34.75 C 20.640625 34.710938 20.699219 34.640625 20.730469 34.5625 C 20.765625 34.480469 20.765625 34.382812 20.722656 34.292969 Z M 5.316406 69.230469 C 5.316406 69.039062 5.160156 68.886719 4.96875 68.886719 C 4.78125 68.886719 4.625 69.039062 4.625 69.230469 C 4.625 69.988281 4.644531 70.757812 4.675781 71.511719 C 4.683594 71.703125 4.84375 71.847656 5.035156 71.839844 C 5.175781 71.835938 5.292969 71.746094 5.339844 71.621094 C 5.359375 71.578125 5.367188 71.53125 5.363281 71.484375 C 5.332031 70.738281 5.316406 69.980469 5.316406 69.230469 Z M 5.140625 64.902344 C 4.949219 64.886719 4.785156 65.03125 4.769531 65.21875 C 4.714844 65.976562 4.675781 66.746094 4.652344 67.5 C 4.648438 67.6875 4.796875 67.847656 4.988281 67.855469 C 5.136719 67.859375 5.265625 67.765625 5.316406 67.636719 C 5.332031 67.601562 5.339844 67.5625 5.339844 67.519531 C 5.363281 66.773438 5.402344 66.015625 5.457031 65.269531 C 5.472656 65.078125 5.328125 64.914062 5.140625 64.902344 Z M 17.320312 36.363281 C 17.207031 36.214844 16.988281 36.1875 16.839844 36.300781 C 16.351562 36.671875 15.921875 37.027344 15.515625 37.394531 C 15.398438 37.5 15.355469 37.605469 15.332031 37.671875 C 15.328125 37.679688 15.328125 37.683594 15.324219 37.691406 C 15.265625 37.742188 15.210938 37.796875 15.152344 37.851562 C 15.015625 37.980469 15.007812 38.199219 15.140625 38.335938 C 15.269531 38.472656 15.488281 38.480469 15.628906 38.347656 C 15.679688 38.296875 15.734375 38.246094 15.789062 38.199219 C 15.90625 38.09375 15.949219 37.984375 15.972656 37.921875 C 15.976562 37.914062 15.976562 37.910156 15.980469 37.902344 C 16.371094 37.550781 16.789062 37.203125 17.257812 36.847656 C 17.308594 36.808594 17.347656 36.753906 17.367188 36.699219 C 17.410156 36.589844 17.398438 36.464844 17.320312 36.363281 Z M 5.597656 60.941406 C 5.40625 60.914062 5.234375 61.042969 5.207031 61.230469 C 5.097656 61.980469 5.003906 62.742188 4.921875 63.496094 C 4.902344 63.683594 5.042969 63.855469 5.230469 63.875 C 5.390625 63.890625 5.53125 63.796875 5.585938 63.65625 C 5.597656 63.628906 5.605469 63.597656 5.609375 63.566406 C 5.6875 62.824219 5.78125 62.070312 5.886719 61.328125 C 5.914062 61.140625 5.785156 60.96875 5.597656 60.941406 Z M 14.417969 39.074219 C 14.277344 38.949219 14.058594 38.960938 13.933594 39.105469 C 13.4375 39.660156 12.953125 40.261719 12.488281 40.898438 C 12.378906 41.054688 12.414062 41.269531 12.566406 41.378906 C 12.722656 41.492188 12.9375 41.457031 13.046875 41.300781 C 13.496094 40.683594 13.96875 40.097656 14.449219 39.5625 C 14.476562 39.53125 14.496094 39.496094 14.511719 39.457031 C 14.5625 39.328125 14.53125 39.175781 14.417969 39.074219 Z M 6.238281 57.019531 C 6.050781 56.980469 5.871094 57.101562 5.832031 57.289062 C 5.683594 58.007812 5.539062 58.761719 5.40625 59.527344 C 5.375 59.710938 5.5 59.890625 5.6875 59.921875 C 5.851562 59.953125 6.007812 59.859375 6.066406 59.710938 C 6.074219 59.6875 6.082031 59.664062 6.085938 59.644531 C 6.21875 58.886719 6.359375 58.140625 6.507812 57.425781 C 6.542969 57.242188 6.425781 57.058594 6.238281 57.019531 Z M 11.988281 42.234375 C 11.828125 42.132812 11.617188 42.179688 11.515625 42.339844 C 11.167969 42.890625 10.816406 43.484375 10.476562 44.109375 C 10.4375 44.183594 10.398438 44.253906 10.359375 44.328125 C 10.273438 44.496094 10.335938 44.703125 10.503906 44.789062 C 10.675781 44.878906 10.882812 44.8125 10.96875 44.644531 C 11.007812 44.574219 11.046875 44.503906 11.082031 44.4375 C 11.414062 43.828125 11.757812 43.246094 12.097656 42.707031 C 12.109375 42.6875 12.117188 42.667969 12.125 42.648438 C 12.1875 42.5 12.132812 42.324219 11.988281 42.234375 Z M 7.199219 53.152344 C 7.015625 53.101562 6.828125 53.207031 6.773438 53.390625 C 6.574219 54.105469 6.382812 54.851562 6.203125 55.601562 C 6.160156 55.785156 6.277344 55.96875 6.460938 56.011719 C 6.628906 56.054688 6.800781 55.960938 6.859375 55.804688 C 6.867188 55.789062 6.871094 55.773438 6.875 55.757812 C 7.050781 55.015625 7.242188 54.28125 7.4375 53.578125 C 7.488281 53.394531 7.382812 53.203125 7.199219 53.152344 Z M 10.042969 45.710938 C 9.871094 45.628906 9.664062 45.703125 9.582031 45.875 C 9.257812 46.558594 8.941406 47.261719 8.652344 47.960938 C 8.578125 48.140625 8.660156 48.339844 8.835938 48.410156 C 9.011719 48.484375 9.214844 48.402344 9.285156 48.226562 C 9.574219 47.535156 9.882812 46.84375 10.203125 46.171875 C 10.207031 46.164062 10.210938 46.15625 10.214844 46.148438 C 10.28125 45.980469 10.207031 45.789062 10.042969 45.710938 Z M 8.457031 49.371094 C 8.28125 49.304688 8.082031 49.394531 8.015625 49.574219 C 7.753906 50.277344 7.503906 51.003906 7.269531 51.734375 C 7.214844 51.914062 7.3125 52.109375 7.496094 52.164062 C 7.667969 52.21875 7.855469 52.128906 7.921875 51.964844 C 7.921875 51.957031 7.925781 51.949219 7.929688 51.941406 C 8.15625 51.222656 8.402344 50.503906 8.660156 49.8125 C 8.726562 49.632812 8.636719 49.4375 8.457031 49.371094 " fill-opacity="1" fill-rule="nonzero"/></g><path fill="#fbc83c" d="M 56.976562 19.328125 C 56.8125 19.445312 56.648438 19.5625 56.484375 19.675781 C 55.933594 20.058594 55.375 20.402344 54.816406 20.707031 C 54.269531 21.003906 53.722656 21.261719 53.1875 21.484375 C 52.46875 21.78125 51.761719 22.011719 51.082031 22.167969 C 50.339844 22.339844 49.628906 22.429688 48.972656 22.433594 C 47.460938 22.4375 46.226562 21.980469 45.519531 21.027344 C 44.800781 20.058594 44.730469 18.726562 45.203125 17.261719 C 45.402344 16.628906 45.703125 15.976562 46.09375 15.316406 C 46.449219 14.71875 46.878906 14.117188 47.375 13.523438 C 47.75 13.074219 48.164062 12.628906 48.617188 12.195312 C 49.070312 11.757812 49.566406 11.328125 50.089844 10.917969 C 50.226562 10.8125 50.367188 10.707031 50.507812 10.601562 C 50.824219 10.371094 51.144531 10.148438 51.46875 9.9375 C 52 9.59375 52.535156 9.285156 53.070312 9.011719 C 53.570312 8.757812 54.066406 8.53125 54.554688 8.339844 C 55.160156 8.105469 55.757812 7.914062 56.335938 7.777344 C 56.914062 7.640625 57.46875 7.550781 58 7.515625 C 59.746094 7.398438 61.179688 7.84375 61.964844 8.90625 C 62.757812 9.976562 62.757812 11.496094 62.113281 13.144531 C 61.917969 13.640625 61.667969 14.144531 61.363281 14.652344 C 61.058594 15.164062 60.695312 15.679688 60.285156 16.191406 C 59.957031 16.601562 59.59375 17.003906 59.203125 17.402344 C 58.777344 17.832031 58.320312 18.253906 57.828125 18.660156 C 57.554688 18.886719 57.269531 19.109375 56.976562 19.328125 " fill-opacity="1" fill-rule="nonzero"/><path fill="#131212" d="M 51.082031 22.167969 C 50.339844 22.339844 49.628906 22.429688 48.972656 22.433594 C 48.253906 21.722656 47.589844 20.960938 46.988281 20.152344 L 46.96875 20.125 C 46.300781 19.222656 45.707031 18.261719 45.203125 17.261719 C 45.402344 16.628906 45.703125 15.976562 46.09375 15.316406 C 46.664062 16.695312 47.394531 17.984375 48.269531 19.167969 C 49.085938 20.265625 50.027344 21.273438 51.082031 22.167969 " fill-opacity="1" fill-rule="nonzero"/><path fill="#131212" d="M 54.816406 20.707031 C 54.269531 21.003906 53.722656 21.261719 53.1875 21.484375 C 52.933594 21.28125 52.6875 21.066406 52.449219 20.847656 C 51.507812 19.992188 50.644531 19.039062 49.882812 18.019531 L 49.863281 17.992188 C 49.113281 16.976562 48.457031 15.886719 47.910156 14.75 C 47.71875 14.347656 47.542969 13.9375 47.375 13.523438 C 47.75 13.074219 48.164062 12.628906 48.617188 12.195312 C 49.222656 13.945312 50.082031 15.570312 51.167969 17.03125 C 52.191406 18.417969 53.417969 19.652344 54.816406 20.707031 " fill-opacity="1" fill-rule="nonzero"/><path fill="#131212" d="M 56.976562 19.328125 C 56.8125 19.445312 56.648438 19.5625 56.484375 19.675781 C 56.09375 19.371094 55.710938 19.046875 55.34375 18.714844 C 54.402344 17.859375 53.539062 16.90625 52.78125 15.882812 L 52.757812 15.859375 C 52.007812 14.84375 51.351562 13.753906 50.808594 12.617188 C 50.542969 12.0625 50.304688 11.496094 50.089844 10.917969 C 50.226562 10.8125 50.367188 10.707031 50.507812 10.601562 C 50.824219 10.371094 51.144531 10.148438 51.46875 9.9375 C 52.078125 11.734375 52.953125 13.402344 54.0625 14.898438 C 55.117188 16.320312 56.382812 17.589844 57.828125 18.660156 C 57.554688 18.886719 57.269531 19.109375 56.976562 19.328125 " fill-opacity="1" fill-rule="nonzero"/><path fill="#131212" d="M 59.203125 17.402344 C 58.871094 17.136719 58.550781 16.863281 58.238281 16.582031 C 57.296875 15.722656 56.433594 14.773438 55.675781 13.75 L 55.65625 13.722656 C 54.902344 12.710938 54.246094 11.621094 53.703125 10.480469 C 53.472656 10 53.261719 9.511719 53.070312 9.011719 C 53.570312 8.757812 54.066406 8.53125 54.554688 8.339844 C 55.148438 9.933594 55.960938 11.417969 56.957031 12.765625 C 57.902344 14.042969 59.019531 15.195312 60.285156 16.191406 C 59.957031 16.601562 59.59375 17.003906 59.203125 17.402344 " fill-opacity="1" fill-rule="nonzero"/><path fill="#131212" d="M 61.363281 14.652344 C 61.285156 14.585938 61.210938 14.515625 61.132812 14.445312 C 60.191406 13.589844 59.328125 12.636719 58.570312 11.617188 C 58.5625 11.609375 58.554688 11.597656 58.550781 11.589844 C 57.796875 10.578125 57.140625 9.484375 56.597656 8.347656 C 56.507812 8.160156 56.421875 7.96875 56.335938 7.777344 C 56.914062 7.640625 57.46875 7.550781 58 7.515625 C 58.511719 8.617188 59.132812 9.660156 59.851562 10.632812 C 60.523438 11.535156 61.277344 12.378906 62.113281 13.144531 C 61.917969 13.640625 61.667969 14.144531 61.363281 14.652344 " fill-opacity="1" fill-rule="nonzero"/><path fill="#131212" d="M 64.21875 11.550781 C 62.675781 12.691406 60.5 12.363281 59.359375 10.824219 C 58.21875 9.285156 58.546875 7.117188 60.089844 5.976562 C 61.632812 4.839844 63.808594 5.164062 64.949219 6.703125 C 66.089844 8.246094 65.761719 10.414062 64.21875 11.550781 " fill-opacity="1" fill-rule="nonzero"/><path fill="#131212" d="M 63.457031 5.859375 C 63.410156 5.855469 63.363281 5.835938 63.328125 5.792969 C 63.261719 5.714844 63.273438 5.597656 63.351562 5.53125 C 63.664062 5.265625 63.910156 4.921875 64.0625 4.539062 C 64.554688 3.269531 63.925781 1.835938 62.652344 1.34375 C 62.554688 1.304688 62.507812 1.195312 62.542969 1.097656 C 62.582031 1.003906 62.691406 0.953125 62.789062 0.992188 C 64.253906 1.5625 64.980469 3.214844 64.410156 4.675781 C 64.238281 5.117188 63.957031 5.511719 63.59375 5.816406 C 63.554688 5.851562 63.503906 5.863281 63.457031 5.859375 " fill-opacity="1" fill-rule="nonzero"/><path fill="#131212" d="M 63.089844 1.636719 C 62.710938 1.917969 62.179688 1.839844 61.902344 1.464844 C 61.625 1.09375 61.707031 0.5625 62.085938 0.28125 C 62.464844 0.00390625 63 0.078125 63.277344 0.453125 C 63.554688 0.828125 63.472656 1.355469 63.089844 1.636719 " fill-opacity="1" fill-rule="nonzero"/><path fill="#131212" d="M 69.53125 10.566406 C 69.441406 10.5625 69.367188 10.488281 69.363281 10.394531 C 69.261719 9.039062 68.070312 8.015625 66.710938 8.113281 C 66.296875 8.144531 65.898438 8.277344 65.550781 8.5 C 65.464844 8.554688 65.347656 8.53125 65.292969 8.441406 C 65.234375 8.355469 65.261719 8.238281 65.347656 8.183594 C 65.746094 7.929688 66.207031 7.773438 66.683594 7.738281 C 68.25 7.625 69.621094 8.804688 69.738281 10.367188 C 69.746094 10.472656 69.667969 10.5625 69.5625 10.566406 C 69.554688 10.570312 69.542969 10.570312 69.53125 10.566406 " fill-opacity="1" fill-rule="nonzero"/><g clip-path="url(#032157160a)"><path fill="#131212" d="M 69.207031 9.890625 C 68.828125 10.167969 68.746094 10.699219 69.023438 11.074219 C 69.300781 11.449219 69.832031 11.523438 70.210938 11.246094 C 70.59375 10.964844 70.675781 10.433594 70.398438 10.0625 C 70.121094 9.6875 69.585938 9.609375 69.207031 9.890625 " fill-opacity="1" fill-rule="nonzero"/></g><path fill="#ffffff" d="M 52.515625 12.445312 C 47.417969 12.414062 43.296875 10.808594 43.308594 8.859375 C 43.320312 6.90625 47.460938 5.347656 52.558594 5.378906 C 57.65625 5.40625 61.769531 8.964844 61.769531 8.964844 C 61.769531 8.964844 57.617188 12.476562 52.515625 12.445312 " fill-opacity="1" fill-rule="nonzero"/><path fill="#ffffff" d="M 55.765625 16.828125 C 54.300781 21.699219 54.628906 26.097656 56.503906 26.660156 C 58.378906 27.222656 61.085938 23.730469 62.554688 18.863281 C 64.023438 13.996094 61.816406 9.03125 61.816406 9.03125 C 61.816406 9.03125 57.234375 11.960938 55.765625 16.828125 " fill-opacity="1" fill-rule="nonzero"/><path fill="#131212" d="M 53.429688 5.605469 C 53.140625 5.582031 52.851562 5.566406 52.558594 5.566406 C 50.113281 5.550781 47.820312 5.902344 46.09375 6.550781 C 44.445312 7.167969 43.5 8.011719 43.496094 8.859375 C 43.488281 9.707031 44.425781 10.558594 46.066406 11.199219 C 47.78125 11.867188 50.074219 12.242188 52.519531 12.257812 C 56.90625 12.285156 60.628906 9.613281 61.472656 8.964844 C 61.109375 8.679688 60.21875 8.007812 58.976562 7.34375 C 57.648438 6.632812 55.667969 5.796875 53.429688 5.605469 Z M 52.515625 12.445312 L 52.519531 12.445312 Z M 50.613281 12.546875 C 48.851562 12.398438 47.230469 12.054688 45.929688 11.546875 C 44.109375 10.839844 43.113281 9.882812 43.121094 8.855469 C 43.125 7.828125 44.132812 6.886719 45.960938 6.199219 C 47.726562 5.535156 50.074219 5.175781 52.558594 5.191406 C 55.234375 5.207031 57.628906 6.191406 59.164062 7.019531 C 60.828125 7.910156 61.851562 8.789062 61.894531 8.824219 L 62.058594 8.96875 L 61.890625 9.109375 C 61.847656 9.144531 60.816406 10.011719 59.144531 10.882812 C 57.59375 11.691406 55.1875 12.648438 52.515625 12.632812 C 51.871094 12.628906 51.230469 12.601562 50.613281 12.546875 " fill-opacity="1" fill-rule="nonzero"/><path fill="#131212" d="M 61.730469 9.316406 C 61.355469 9.578125 60.457031 10.242188 59.46875 11.242188 C 58.273438 12.449219 56.691406 14.40625 55.945312 16.882812 C 55.242188 19.214844 54.933594 21.511719 55.070312 23.347656 C 55.199219 25.09375 55.742188 26.238281 56.558594 26.480469 C 57.371094 26.726562 58.457031 26.070312 59.535156 24.683594 C 60.660156 23.230469 61.671875 21.140625 62.375 18.808594 C 63.121094 16.332031 62.882812 13.832031 62.554688 12.167969 C 62.28125 10.789062 61.898438 9.742188 61.730469 9.316406 Z M 56.773438 26.902344 C 56.664062 26.894531 56.554688 26.871094 56.449219 26.839844 C 55.460938 26.546875 54.839844 25.3125 54.695312 23.375 C 54.554688 21.496094 54.871094 19.152344 55.585938 16.773438 L 55.765625 16.828125 L 55.585938 16.773438 C 56.355469 14.222656 57.980469 12.210938 59.207031 10.972656 C 60.539062 9.632812 61.667969 8.902344 61.714844 8.871094 L 61.902344 8.753906 L 61.988281 8.953125 C 62.011719 9.003906 62.554688 10.234375 62.921875 12.085938 C 63.261719 13.792969 63.503906 16.363281 62.734375 18.917969 C 62.019531 21.292969 60.988281 23.421875 59.832031 24.914062 C 58.765625 26.289062 57.691406 26.980469 56.773438 26.902344 " fill-opacity="1" fill-rule="nonzero"/></svg>