<svg xmlns="http://www.w3.org/2000/svg" xmlns:xlink="http://www.w3.org/1999/xlink" width="100" zoomAndPan="magnify" viewBox="0 0 75 74.999997" height="100" preserveAspectRatio="xMidYMid meet" version="1.0"><defs><clipPath id="f78835b5a5"><path d="M 0 4.171875 L 75 4.171875 L 75 12 L 0 12 Z M 0 4.171875 " clip-rule="nonzero"/></clipPath><clipPath id="6c7bffe155"><path d="M 0 4.171875 L 18 4.171875 L 18 12 L 0 12 Z M 0 4.171875 " clip-rule="nonzero"/></clipPath><clipPath id="6a08fcce4f"><path d="M 0 4.171875 L 8 4.171875 L 8 12 L 0 12 Z M 0 4.171875 " clip-rule="nonzero"/></clipPath><clipPath id="31f87ee2ef"><path d="M 34 65 L 41 65 L 41 70.921875 L 34 70.921875 Z M 34 65 " clip-rule="nonzero"/></clipPath><clipPath id="751849772c"><path d="M 34 65 L 39 65 L 39 70.921875 L 34 70.921875 Z M 34 65 " clip-rule="nonzero"/></clipPath></defs><path fill="#fac600" d="M 36.402344 65.417969 C 36.738281 65.273438 37.109375 65.191406 37.5 65.191406 C 37.890625 65.191406 38.261719 65.273438 38.597656 65.417969 L 38.597656 59.957031 L 36.402344 59.957031 Z M 36.402344 65.417969 " fill-opacity="1" fill-rule="nonzero"/><path fill="#fdf6ec" d="M 2.214844 11.101562 L 2.214844 59.339844 C 2.214844 59.761719 2.554688 60.105469 2.980469 60.105469 L 72.019531 60.105469 C 72.445312 60.105469 72.785156 59.761719 72.785156 59.339844 L 72.785156 11.101562 Z M 2.214844 11.101562 " fill-opacity="1" fill-rule="nonzero"/><path fill="#fef1da" d="M 6.871094 59.339844 L 6.871094 11.097656 L 2.214844 11.097656 L 2.214844 59.339844 C 2.214844 59.761719 2.554688 60.105469 2.980469 60.105469 L 7.636719 60.105469 C 7.210938 60.105469 6.871094 59.761719 6.871094 59.339844 Z M 6.871094 59.339844 " fill-opacity="1" fill-rule="nonzero"/><path fill="#c8effe" d="M 64.242188 41.660156 L 39.300781 41.660156 C 38.148438 41.660156 37.210938 40.722656 37.210938 39.566406 C 37.210938 38.410156 38.148438 37.472656 39.300781 37.472656 L 64.242188 37.472656 C 65.398438 37.472656 66.332031 38.410156 66.332031 39.566406 C 66.332031 40.722656 65.398438 41.660156 64.242188 41.660156 Z M 64.242188 41.660156 " fill-opacity="1" fill-rule="nonzero"/><g clip-path="url(#f78835b5a5)"><path fill="#7ca1b1" d="M 74.230469 4.167969 L 0.769531 4.167969 C 0.347656 4.167969 0.00390625 4.507812 0.00390625 4.933594 L 0.00390625 10.484375 C 0.00390625 10.90625 0.347656 11.25 0.769531 11.25 L 74.230469 11.25 C 74.652344 11.25 74.996094 10.90625 74.996094 10.484375 L 74.996094 4.933594 C 74.996094 4.507812 74.652344 4.167969 74.230469 4.167969 Z M 74.230469 4.167969 " fill-opacity="1" fill-rule="nonzero"/></g><g clip-path="url(#6c7bffe155)"><path fill="#537983" d="M 17.144531 4.167969 L 0.769531 4.167969 C 0.347656 4.167969 0.00390625 4.507812 0.00390625 4.933594 L 0.00390625 10.484375 C 0.00390625 10.90625 0.347656 11.25 0.769531 11.25 L 17.144531 11.25 Z M 17.144531 4.167969 " fill-opacity="1" fill-rule="nonzero"/></g><g clip-path="url(#6a08fcce4f)"><path fill="#3e5959" d="M 6.417969 10.484375 L 6.417969 4.933594 C 6.417969 4.511719 6.761719 4.167969 7.183594 4.167969 L 0.769531 4.167969 C 0.347656 4.167969 0.00390625 4.507812 0.00390625 4.933594 L 0.00390625 10.484375 C 0.00390625 10.90625 0.347656 11.25 0.769531 11.25 L 7.183594 11.25 C 6.761719 11.25 6.417969 10.90625 6.417969 10.484375 Z M 6.417969 10.484375 " fill-opacity="1" fill-rule="nonzero"/></g><path fill="#fd5426" d="M 31.402344 31.621094 L 20.5 31.621094 L 23.804688 41.488281 L 24.347656 42.652344 C 28.890625 41.128906 32.164062 36.832031 32.164062 31.769531 Z M 31.402344 31.621094 " fill-opacity="1" fill-rule="nonzero"/><path fill="#05e39c" d="M 32.164062 31.769531 C 32.164062 26.8125 28.960938 22.550781 24.527344 20.960938 L 24.527344 23.792969 C 24.527344 24.058594 24.3125 24.277344 24.046875 24.277344 L 12.054688 24.277344 C 10.308594 26.292969 9.242188 28.914062 9.242188 31.769531 C 9.242188 38.066406 14.417969 43.246094 20.703125 43.246094 C 21.941406 43.246094 23.171875 43.046875 24.347656 42.652344 L 20.703125 31.769531 Z M 32.164062 31.769531 " fill-opacity="1" fill-rule="nonzero"/><path fill="#0ed290" d="M 13.054688 31.769531 C 13.054688 28.914062 14.121094 26.292969 15.871094 24.277344 L 12.058594 24.277344 C 10.308594 26.292969 9.242188 28.914062 9.242188 31.769531 C 9.242188 38.066406 14.417969 43.246094 20.703125 43.246094 C 21.347656 43.246094 21.988281 43.191406 22.621094 43.085938 C 17.222656 42.167969 13.054688 37.417969 13.054688 31.769531 Z M 13.054688 31.769531 " fill-opacity="1" fill-rule="nonzero"/><path fill="#c8effe" d="M 64.242188 26.066406 L 39.300781 26.066406 C 38.148438 26.066406 37.210938 25.128906 37.210938 23.972656 C 37.210938 22.816406 38.148438 21.878906 39.300781 21.878906 L 64.242188 21.878906 C 65.398438 21.878906 66.332031 22.816406 66.332031 23.972656 C 66.332031 25.128906 65.398438 26.066406 64.242188 26.066406 Z M 64.242188 26.066406 " fill-opacity="1" fill-rule="nonzero"/><path fill="#01d0fb" d="M 57.738281 26.066406 L 57.738281 21.878906 L 39.300781 21.878906 C 38.148438 21.878906 37.210938 22.816406 37.210938 23.972656 C 37.210938 25.128906 38.148438 26.066406 39.300781 26.066406 Z M 57.738281 26.066406 " fill-opacity="1" fill-rule="nonzero"/><path fill="#01c0fa" d="M 41.117188 23.972656 C 41.117188 22.816406 42.050781 21.878906 43.207031 21.878906 L 39.300781 21.878906 C 38.148438 21.878906 37.210938 22.816406 37.210938 23.972656 C 37.210938 25.128906 38.148438 26.066406 39.300781 26.066406 L 43.207031 26.066406 C 42.050781 26.066406 41.117188 25.128906 41.117188 23.972656 Z M 41.117188 23.972656 " fill-opacity="1" fill-rule="nonzero"/><path fill="#c8effe" d="M 64.242188 33.863281 L 39.300781 33.863281 C 38.148438 33.863281 37.210938 32.925781 37.210938 31.769531 C 37.210938 30.613281 38.148438 29.675781 39.300781 29.675781 L 64.242188 29.675781 C 65.398438 29.675781 66.332031 30.613281 66.332031 31.769531 C 66.332031 32.925781 65.398438 33.863281 64.242188 33.863281 Z M 64.242188 33.863281 " fill-opacity="1" fill-rule="nonzero"/><path fill="#01d0fb" d="M 39.300781 29.675781 C 38.148438 29.675781 37.210938 30.613281 37.210938 31.769531 C 37.210938 32.925781 38.148438 33.863281 39.300781 33.863281 L 50.253906 33.863281 L 50.253906 29.675781 Z M 39.300781 29.675781 " fill-opacity="1" fill-rule="nonzero"/><path fill="#01c0fa" d="M 41.054688 31.769531 C 41.054688 30.613281 41.992188 29.675781 43.144531 29.675781 L 39.300781 29.675781 C 38.148438 29.675781 37.210938 30.613281 37.210938 31.769531 C 37.210938 32.925781 38.148438 33.863281 39.300781 33.863281 L 43.144531 33.863281 C 41.992188 33.863281 41.054688 32.925781 41.054688 31.769531 Z M 41.054688 31.769531 " fill-opacity="1" fill-rule="nonzero"/><path fill="#01d0fb" d="M 39.300781 37.472656 C 38.148438 37.472656 37.210938 38.410156 37.210938 39.566406 C 37.210938 40.722656 38.148438 41.660156 39.300781 41.660156 L 56.242188 41.660156 L 56.242188 37.472656 Z M 39.300781 37.472656 " fill-opacity="1" fill-rule="nonzero"/><path fill="#01c0fa" d="M 41.105469 39.566406 C 41.105469 38.410156 42.039062 37.472656 43.195312 37.472656 L 39.300781 37.472656 C 38.148438 37.472656 37.210938 38.410156 37.210938 39.566406 C 37.210938 40.722656 38.148438 41.660156 39.300781 41.660156 L 43.195312 41.660156 C 42.039062 41.660156 41.105469 40.722656 41.105469 39.566406 Z M 41.105469 39.566406 " fill-opacity="1" fill-rule="nonzero"/><g clip-path="url(#31f87ee2ef)"><path fill="#7ca1b1" d="M 40.429688 67.980469 C 40.429688 68.367188 40.355469 68.742188 40.207031 69.101562 C 40.058594 69.460938 39.847656 69.777344 39.570312 70.054688 C 39.296875 70.328125 38.980469 70.539062 38.621094 70.6875 C 38.261719 70.839844 37.886719 70.914062 37.5 70.914062 C 37.113281 70.914062 36.738281 70.839844 36.378906 70.6875 C 36.019531 70.539062 35.703125 70.328125 35.429688 70.054688 C 35.152344 69.777344 34.941406 69.460938 34.792969 69.101562 C 34.644531 68.742188 34.570312 68.367188 34.570312 67.980469 C 34.570312 67.589844 34.644531 67.214844 34.792969 66.855469 C 34.941406 66.496094 35.152344 66.179688 35.429688 65.90625 C 35.703125 65.628906 36.019531 65.417969 36.378906 65.269531 C 36.738281 65.121094 37.113281 65.046875 37.5 65.046875 C 37.886719 65.046875 38.261719 65.121094 38.621094 65.269531 C 38.980469 65.417969 39.296875 65.628906 39.570312 65.90625 C 39.847656 66.179688 40.058594 66.496094 40.207031 66.855469 C 40.355469 67.214844 40.429688 67.589844 40.429688 67.980469 Z M 40.429688 67.980469 " fill-opacity="1" fill-rule="nonzero"/></g><g clip-path="url(#751849772c)"><path fill="#678d98" d="M 37.417969 67.980469 C 37.417969 66.875 38.027344 65.917969 38.921875 65.417969 C 38.5 65.179688 38.015625 65.046875 37.5 65.046875 C 35.882812 65.046875 34.570312 66.359375 34.570312 67.980469 C 34.570312 69.597656 35.882812 70.914062 37.5 70.914062 C 38.015625 70.914062 38.503906 70.777344 38.921875 70.542969 C 38.027344 70.039062 37.417969 69.082031 37.417969 67.980469 Z M 37.417969 67.980469 " fill-opacity="1" fill-rule="nonzero"/></g><path fill="#fedf30" d="M 24.046875 24.421875 L 7.246094 24.421875 C 6.898438 24.421875 6.617188 24.140625 6.617188 23.792969 L 6.617188 17.324219 C 6.617188 16.976562 6.898438 16.695312 7.246094 16.695312 L 24.046875 16.695312 C 24.394531 16.695312 24.675781 16.976562 24.675781 17.324219 L 24.675781 23.792969 C 24.675781 24.140625 24.394531 24.421875 24.046875 24.421875 Z M 24.046875 24.421875 " fill-opacity="1" fill-rule="nonzero"/><path fill="#ffffff" d="M 24.046875 24.421875 L 7.246094 24.421875 C 6.898438 24.421875 6.617188 24.140625 6.617188 23.792969 L 6.617188 17.324219 C 6.617188 16.976562 6.898438 16.695312 7.246094 16.695312 L 24.046875 16.695312 C 24.394531 16.695312 24.675781 16.976562 24.675781 17.324219 L 24.675781 23.792969 C 24.675781 24.140625 24.394531 24.421875 24.046875 24.421875 Z M 24.046875 24.421875 " fill-opacity="1" fill-rule="nonzero"/><path fill="#eef5f6" d="M 11.746094 23.792969 L 11.746094 17.324219 C 11.746094 16.976562 12.027344 16.695312 12.375 16.695312 L 7.246094 16.695312 C 6.898438 16.695312 6.617188 16.976562 6.617188 17.324219 L 6.617188 23.792969 C 6.617188 24.140625 6.898438 24.421875 7.246094 24.421875 L 12.375 24.421875 C 12.027344 24.421875 11.746094 24.140625 11.746094 23.792969 Z M 11.746094 23.792969 " fill-opacity="1" fill-rule="nonzero"/><path fill="#7ca1b1" d="M 12.589844 21.660156 L 10.386719 21.660156 C 9.78125 21.660156 9.289062 21.167969 9.289062 20.558594 C 9.289062 19.949219 9.78125 19.457031 10.386719 19.457031 L 12.589844 19.457031 C 13.195312 19.457031 13.6875 19.949219 13.6875 20.558594 C 13.6875 21.167969 13.195312 21.660156 12.589844 21.660156 Z M 12.589844 21.660156 " fill-opacity="1" fill-rule="nonzero"/><path fill="#7ca1b1" d="M 20.902344 21.660156 L 15.445312 21.660156 C 14.839844 21.660156 14.347656 21.167969 14.347656 20.558594 C 14.347656 19.949219 14.839844 19.457031 15.445312 19.457031 L 20.902344 19.457031 C 21.507812 19.457031 22 19.949219 22 20.558594 C 22 21.167969 21.507812 21.660156 20.902344 21.660156 Z M 20.902344 21.660156 " fill-opacity="1" fill-rule="nonzero"/><path fill="#fac600" d="M 52.472656 15.585938 C 52.472656 15.730469 52.445312 15.871094 52.386719 16.003906 C 52.332031 16.140625 52.253906 16.257812 52.148438 16.363281 C 52.046875 16.464844 51.929688 16.542969 51.792969 16.601562 C 51.660156 16.65625 51.519531 16.683594 51.371094 16.683594 C 51.226562 16.683594 51.085938 16.65625 50.953125 16.601562 C 50.816406 16.542969 50.699219 16.464844 50.597656 16.363281 C 50.492188 16.257812 50.414062 16.140625 50.359375 16.003906 C 50.300781 15.871094 50.273438 15.730469 50.273438 15.585938 C 50.273438 15.4375 50.300781 15.296875 50.359375 15.164062 C 50.414062 15.027344 50.492188 14.910156 50.597656 14.804688 C 50.699219 14.703125 50.816406 14.625 50.953125 14.566406 C 51.085938 14.511719 51.226562 14.484375 51.371094 14.484375 C 51.519531 14.484375 51.660156 14.511719 51.792969 14.566406 C 51.929688 14.625 52.046875 14.703125 52.148438 14.804688 C 52.253906 14.910156 52.332031 15.027344 52.386719 15.164062 C 52.445312 15.296875 52.472656 15.4375 52.472656 15.585938 Z M 52.472656 15.585938 " fill-opacity="1" fill-rule="nonzero"/><path fill="#fac600" d="M 56.132812 15.585938 C 56.132812 15.730469 56.105469 15.871094 56.050781 16.003906 C 55.992188 16.140625 55.914062 16.257812 55.8125 16.363281 C 55.707031 16.464844 55.589844 16.542969 55.453125 16.601562 C 55.320312 16.65625 55.179688 16.683594 55.035156 16.683594 C 54.890625 16.683594 54.75 16.65625 54.613281 16.601562 C 54.480469 16.542969 54.359375 16.464844 54.257812 16.363281 C 54.15625 16.257812 54.074219 16.140625 54.019531 16.003906 C 53.964844 15.871094 53.9375 15.730469 53.9375 15.585938 C 53.9375 15.4375 53.964844 15.296875 54.019531 15.164062 C 54.074219 15.027344 54.15625 14.910156 54.257812 14.804688 C 54.359375 14.703125 54.480469 14.625 54.613281 14.566406 C 54.75 14.511719 54.890625 14.484375 55.035156 14.484375 C 55.179688 14.484375 55.320312 14.511719 55.453125 14.566406 C 55.589844 14.625 55.707031 14.703125 55.8125 14.804688 C 55.914062 14.910156 55.992188 15.027344 56.050781 15.164062 C 56.105469 15.296875 56.132812 15.4375 56.132812 15.585938 Z M 56.132812 15.585938 " fill-opacity="1" fill-rule="nonzero"/><path fill="#fac600" d="M 59.792969 15.585938 C 59.792969 15.730469 59.765625 15.871094 59.710938 16.003906 C 59.65625 16.140625 59.574219 16.257812 59.472656 16.363281 C 59.371094 16.464844 59.25 16.542969 59.117188 16.601562 C 58.980469 16.65625 58.839844 16.683594 58.695312 16.683594 C 58.550781 16.683594 58.410156 16.65625 58.277344 16.601562 C 58.140625 16.542969 58.023438 16.464844 57.917969 16.363281 C 57.816406 16.257812 57.738281 16.140625 57.679688 16.003906 C 57.625 15.871094 57.597656 15.730469 57.597656 15.585938 C 57.597656 15.4375 57.625 15.296875 57.679688 15.164062 C 57.738281 15.027344 57.816406 14.910156 57.917969 14.804688 C 58.023438 14.703125 58.140625 14.625 58.277344 14.566406 C 58.410156 14.511719 58.550781 14.484375 58.695312 14.484375 C 58.839844 14.484375 58.980469 14.511719 59.117188 14.566406 C 59.25 14.625 59.371094 14.703125 59.472656 14.804688 C 59.574219 14.910156 59.65625 15.027344 59.710938 15.164062 C 59.765625 15.296875 59.792969 15.4375 59.792969 15.585938 Z M 59.792969 15.585938 " fill-opacity="1" fill-rule="nonzero"/><path fill="#fac600" d="M 63.457031 15.585938 C 63.457031 15.730469 63.429688 15.871094 63.371094 16.003906 C 63.316406 16.140625 63.238281 16.257812 63.132812 16.363281 C 63.03125 16.464844 62.914062 16.542969 62.777344 16.601562 C 62.644531 16.65625 62.503906 16.683594 62.359375 16.683594 C 62.210938 16.683594 62.070312 16.65625 61.9375 16.601562 C 61.804688 16.542969 61.683594 16.464844 61.582031 16.363281 C 61.476562 16.257812 61.398438 16.140625 61.34375 16.003906 C 61.289062 15.871094 61.257812 15.730469 61.257812 15.585938 C 61.257812 15.4375 61.289062 15.296875 61.34375 15.164062 C 61.398438 15.027344 61.476562 14.910156 61.582031 14.804688 C 61.683594 14.703125 61.804688 14.625 61.9375 14.566406 C 62.070312 14.511719 62.210938 14.484375 62.359375 14.484375 C 62.503906 14.484375 62.644531 14.511719 62.777344 14.566406 C 62.914062 14.625 63.03125 14.703125 63.132812 14.804688 C 63.238281 14.910156 63.316406 15.027344 63.371094 15.164062 C 63.429688 15.296875 63.457031 15.4375 63.457031 15.585938 Z M 63.457031 15.585938 " fill-opacity="1" fill-rule="nonzero"/><path fill="#fac600" d="M 67.117188 15.585938 C 67.117188 15.730469 67.089844 15.871094 67.035156 16.003906 C 66.976562 16.140625 66.898438 16.257812 66.796875 16.363281 C 66.691406 16.464844 66.574219 16.542969 66.441406 16.601562 C 66.304688 16.65625 66.164062 16.683594 66.019531 16.683594 C 65.875 16.683594 65.734375 16.65625 65.597656 16.601562 C 65.464844 16.542969 65.34375 16.464844 65.242188 16.363281 C 65.140625 16.257812 65.058594 16.140625 65.003906 16.003906 C 64.949219 15.871094 64.921875 15.730469 64.921875 15.585938 C 64.921875 15.4375 64.949219 15.296875 65.003906 15.164062 C 65.058594 15.027344 65.140625 14.910156 65.242188 14.804688 C 65.34375 14.703125 65.464844 14.625 65.597656 14.566406 C 65.734375 14.511719 65.875 14.484375 66.019531 14.484375 C 66.164062 14.484375 66.304688 14.511719 66.441406 14.566406 C 66.574219 14.625 66.691406 14.703125 66.796875 14.804688 C 66.898438 14.910156 66.976562 15.027344 67.035156 15.164062 C 67.089844 15.296875 67.117188 15.4375 67.117188 15.585938 Z M 67.117188 15.585938 " fill-opacity="1" fill-rule="nonzero"/><path fill="#01c0fa" d="M 45.945312 53.789062 L 45.945312 49.070312 C 45.945312 48.464844 45.453125 47.972656 44.847656 47.972656 C 44.238281 47.972656 43.746094 48.464844 43.746094 49.070312 L 43.746094 53.789062 Z M 45.945312 53.789062 " fill-opacity="1" fill-rule="nonzero"/><path fill="#fe9901" d="M 38.597656 53.789062 L 38.597656 50.601562 C 38.597656 49.996094 38.105469 49.503906 37.5 49.503906 C 36.894531 49.503906 36.402344 49.996094 36.402344 50.601562 L 36.402344 53.789062 Z M 38.597656 53.789062 " fill-opacity="1" fill-rule="nonzero"/><path fill="#fd5426" d="M 53.289062 53.789062 L 53.289062 52.136719 C 53.289062 51.527344 52.800781 51.035156 52.191406 51.035156 C 51.585938 51.035156 51.09375 51.527344 51.09375 52.136719 L 51.09375 53.789062 Z M 53.289062 53.789062 " fill-opacity="1" fill-rule="nonzero"/><path fill="#0ed290" d="M 42.269531 53.789062 L 42.269531 47.539062 C 42.269531 46.929688 41.78125 46.4375 41.171875 46.4375 C 40.566406 46.4375 40.074219 46.929688 40.074219 47.539062 L 40.074219 53.789062 Z M 42.269531 53.789062 " fill-opacity="1" fill-rule="nonzero"/><path fill="#01c0fa" d="M 64.308594 53.789062 L 64.308594 49.070312 C 64.308594 48.464844 63.816406 47.972656 63.210938 47.972656 C 62.605469 47.972656 62.113281 48.464844 62.113281 49.070312 L 62.113281 53.789062 Z M 64.308594 53.789062 " fill-opacity="1" fill-rule="nonzero"/><path fill="#fe9901" d="M 56.964844 53.789062 L 56.964844 50.601562 C 56.964844 49.996094 56.472656 49.503906 55.863281 49.503906 C 55.257812 49.503906 54.765625 49.996094 54.765625 50.601562 L 54.765625 53.789062 Z M 56.964844 53.789062 " fill-opacity="1" fill-rule="nonzero"/><path fill="#0ed290" d="M 60.636719 53.789062 L 60.636719 47.539062 C 60.636719 46.929688 60.144531 46.4375 59.539062 46.4375 C 58.929688 46.4375 58.4375 46.929688 58.4375 47.539062 L 58.4375 53.789062 Z M 60.636719 53.789062 " fill-opacity="1" fill-rule="nonzero"/><path fill="#0ed290" d="M 49.617188 53.789062 L 49.617188 47.539062 C 49.617188 46.929688 49.125 46.4375 48.519531 46.4375 C 47.910156 46.4375 47.421875 46.929688 47.421875 47.539062 L 47.421875 53.789062 Z M 49.617188 53.789062 " fill-opacity="1" fill-rule="nonzero"/><path fill="#01c0fa" d="M 20.234375 53.789062 L 20.234375 49.070312 C 20.234375 48.464844 19.742188 47.972656 19.136719 47.972656 C 18.527344 47.972656 18.035156 48.464844 18.035156 49.070312 L 18.035156 53.789062 Z M 20.234375 53.789062 " fill-opacity="1" fill-rule="nonzero"/><path fill="#fe9901" d="M 12.886719 53.789062 L 12.886719 50.601562 C 12.886719 49.996094 12.394531 49.503906 11.789062 49.503906 C 11.183594 49.503906 10.691406 49.996094 10.691406 50.601562 L 10.691406 53.789062 Z M 12.886719 53.789062 " fill-opacity="1" fill-rule="nonzero"/><path fill="#0ed290" d="M 16.5625 53.789062 L 16.5625 47.539062 C 16.5625 46.929688 16.070312 46.4375 15.460938 46.4375 C 14.855469 46.4375 14.363281 46.929688 14.363281 47.539062 L 14.363281 53.789062 Z M 16.5625 53.789062 " fill-opacity="1" fill-rule="nonzero"/><path fill="#fd5426" d="M 27.578125 53.789062 L 27.578125 52.136719 C 27.578125 51.527344 27.089844 51.035156 26.480469 51.035156 C 25.875 51.035156 25.382812 51.527344 25.382812 52.136719 L 25.382812 53.789062 Z M 27.578125 53.789062 " fill-opacity="1" fill-rule="nonzero"/><path fill="#01c0fa" d="M 31.253906 53.789062 L 31.253906 49.070312 C 31.253906 48.464844 30.761719 47.972656 30.152344 47.972656 C 29.546875 47.972656 29.054688 48.464844 29.054688 49.070312 L 29.054688 53.789062 Z M 31.253906 53.789062 " fill-opacity="1" fill-rule="nonzero"/><path fill="#fe9901" d="M 23.90625 53.789062 L 23.90625 50.601562 C 23.90625 49.996094 23.414062 49.503906 22.808594 49.503906 C 22.199219 49.503906 21.710938 49.996094 21.710938 50.601562 L 21.710938 53.789062 Z M 23.90625 53.789062 " fill-opacity="1" fill-rule="nonzero"/><path fill="#fd5426" d="M 34.925781 53.789062 L 34.925781 52.136719 C 34.925781 51.527344 34.433594 51.035156 33.828125 51.035156 C 33.21875 51.035156 32.730469 51.527344 32.730469 52.136719 L 32.730469 53.789062 Z M 34.925781 53.789062 " fill-opacity="1" fill-rule="nonzero"/><path fill="#7ca1b1" d="M 66.730469 55.839844 L 9.953125 55.839844 C 9.34375 55.839844 8.855469 55.347656 8.855469 54.742188 C 8.855469 54.132812 9.34375 53.640625 9.953125 53.640625 L 66.730469 53.640625 C 67.335938 53.640625 67.828125 54.132812 67.828125 54.742188 C 67.828125 55.347656 67.335938 55.839844 66.730469 55.839844 Z M 66.730469 55.839844 " fill-opacity="1" fill-rule="nonzero"/></svg>